<?xml version="1.0" encoding="UTF-8" standalone="no"?>
<!-- Created with Inkscape (http://www.inkscape.org/) -->

<svg
   width="56.093311mm"
   height="56.942875mm"
   viewBox="0 0 56.093311 56.942875"
   version="1.1"
   id="svg1"
   xml:space="preserve"
   xmlns="http://www.w3.org/2000/svg"
   xmlns:svg="http://www.w3.org/2000/svg"><defs
     id="defs1" /><g
     id="layer1"
     transform="translate(-141.13752,-133.64901)"><g
       id="g252"
       transform="translate(58.696128,63.660477)"><path
         style="font-size:22.862px;line-height:1.25;font-family:'Better Together';-inkscape-font-specification:'Better Together';text-align:center;text-anchor:middle;fill:#ffffff;stroke-width:0.264583"
         d="m 96.125858,106.92832 q 0.251482,0.0457 0.274344,0.22862 0.04572,0.18289 0,0.36579 -0.22862,0.80017 -0.434378,1.64606 -0.205758,0.82304 -0.480102,1.62321 -0.11431,0.36579 -0.320068,0.93734 -0.205758,0.57155 -0.525826,1.12024 -0.297206,0.52582 -0.708721,0.91448 -0.411516,0.38865 -0.937342,0.38865 -0.594412,0 -1.097376,-0.41152 -0.502964,-0.41151 -0.731584,-1.02879 -0.251482,-0.73158 -0.388654,-1.73751 -0.11431,-1.00593 -0.160034,-2.5834 -0.02286,-0.73159 -0.04572,-0.8459 0,-0.13717 -0.06859,-0.11431 -0.274344,0.0457 -0.57155,0.0914 -0.274344,0.0229 -0.525826,0.0915 -0.22862,0.0457 -0.411516,0.16003 -0.160034,0.11431 -0.182896,0.32007 -0.02286,0.25148 -0.06859,0.68586 -0.02286,0.43438 -0.09145,0.86876 -0.04572,0.43437 -0.09145,0.80017 -0.04572,0.36579 -0.06859,0.45724 -0.04572,0.20575 -0.11431,0.34293 -0.06859,0.13717 -0.137172,0.13717 -0.02286,0 -0.04572,0.0229 0,0 -0.02286,0 -0.04572,0.0457 -0.09145,0.0457 -0.04572,-0.0229 -0.04572,-0.0686 0,-0.0457 -0.04572,-0.0457 -0.02286,0 -0.02286,0.0686 0,0.0686 -0.06859,0.0686 -0.04572,-0.0229 -0.11431,-0.0229 -0.02286,0 -0.02286,-0.0229 v -0.0457 q 0,-0.0457 -0.02286,-0.0457 0,0 0,0.0229 -0.02286,0.0457 -0.06859,0.0457 -0.06859,0 -0.06859,-0.0457 0,-0.0229 -0.04572,-0.0229 -0.04572,0.0457 -0.09145,-0.11431 -0.06859,-0.16003 -0.06859,-0.38865 0,-0.16003 0.02286,-0.59441 0.02286,-0.43438 0.06859,-0.91448 0.02286,-0.4801 0.06859,-0.89162 0.04572,-0.43438 0.06859,-0.61727 l 0.251482,-2.17189 q 0.137172,-1.02879 0.297206,-1.82896 0.160034,-0.80017 0.320068,-1.41745 0.182896,-0.61727 0.388654,-1.07451 0.205758,-0.4801 0.45724,-0.86876 0.22862,-0.34293 0.617274,-0.548685 0.411516,-0.205758 0.845894,-0.22862 0.434378,-0.04572 0.845894,0.11431 0.411516,0.160034 0.68586,0.571545 0.365792,0.54869 0.45724,1.28028 0.11431,0.70872 0.09145,1.48603 -0.02286,0.7773 -0.06859,1.55461 -0.04572,0.77731 0,1.41745 0,0.0229 0.09145,0.0686 0.09145,0.0229 0.205758,0.0686 0.11431,0.0229 0.22862,0.0686 0.11431,0.0457 0.160034,0.0686 0.182896,0.13717 0.22862,0.32007 0.04572,0.18289 -0.09145,0.2972 -0.06859,0.0915 -0.09145,0.0915 -0.02286,0 -0.06859,-0.0457 -0.04572,-0.0686 -0.04572,-0.0229 0,0.22862 -0.182896,0.0914 -0.06859,-0.0686 -0.11431,0 -0.04572,0.0457 -0.160034,0.0457 -0.09145,0 -0.182896,-0.0457 -0.06859,-0.0457 -0.09145,0.25149 0,0.27434 0,0.73158 0,0.45724 0,1.00593 0.02286,0.52582 0.04572,1.02879 0.02286,0.4801 0.04572,0.82303 0.02286,0.34293 0.02286,0.38865 0.02286,0.25149 0.06859,0.57155 0.06859,0.29721 0.11431,0.57155 0.06859,0.32007 0.11431,0.64014 h 0.02286 q 0.06859,-0.0457 0.205758,-0.1829 0.137172,-0.13717 0.320068,-0.43437 0.182896,-0.29721 0.388654,-0.77731 0.22862,-0.50297 0.480101,-1.25741 0.04572,-0.16004 0.182896,-0.64014 0.160034,-0.50296 0.297206,-1.05165 0.160034,-0.54869 0.274344,-0.98307 0.137172,-0.43437 0.137172,-0.4801 0,-0.0229 0.04572,-0.0914 0.04572,-0.0914 0.11431,-0.16003 0.09145,-0.0914 0.22862,-0.13717 0.137172,-0.0457 0.320068,0 z m -7.864527,-0.93734 q 0.411516,-3.01779 1.051652,-4.54954 0.04572,-0.11431 0.06859,-0.20576 0.04572,-0.11431 0.02286,-0.11431 -0.02286,-0.0229 -0.160034,0.27434 -0.11431,0.27435 -0.22862,0.54869 -0.182896,0.45724 -0.34293,1.18883 -0.160034,0.73158 -0.320068,1.80609 -0.02286,0.20576 -0.06859,0.48011 -0.02286,0.25148 -0.06859,0.50296 -0.02286,0.25148 -0.04572,0.43438 -0.02286,0.18289 -0.02286,0.22862 0,0.11431 0.02286,-0.0457 0.04572,-0.16003 0.09145,-0.54868 z m 0.434378,-0.16004 q 0.205758,-1.4403 0.434378,-2.51482 0.251482,-1.07451 0.57155,-1.82896 0.11431,-0.25148 0.04572,-0.20576 -0.04572,0.0457 -0.182896,0.3658 -0.137172,0.32006 -0.251482,0.66299 -0.11431,0.32007 -0.22862,0.77731 -0.09145,0.43438 -0.182896,1.02879 -0.09145,0.59441 -0.205758,1.39458 -0.04572,0.32007 -0.06859,0.57155 -0.02286,0.25149 -0.02286,0.29721 0,0.0457 0.02286,-0.11431 0.02286,-0.1829 0.06859,-0.43438 z m 1.874684,0.54869 q 0.04572,0.0229 0.04572,-0.36579 0.02286,-0.41152 0,-1.00593 -0.02286,-0.61727 -0.06859,-1.326 -0.02286,-0.70872 -0.09145,-1.32599 -0.04572,-0.61728 -0.11431,-1.00593 -0.06859,-0.41152 -0.137172,-0.41152 -0.11431,0 -0.251482,0.3658 -0.11431,0.36579 -0.251482,0.91448 -0.137172,0.54868 -0.274344,1.21168 -0.11431,0.663 -0.22862,1.28027 -0.09145,0.61728 -0.160034,1.12024 -0.04572,0.4801 -0.04572,0.68586 0,0.0686 0.160034,0.0686 0.160034,-0.0229 0.388654,-0.0457 0.22862,-0.0457 0.502964,-0.0914 0.274344,-0.0457 0.525826,-0.0686 z m 11.613907,0.27434 q 0.20576,0.0457 0.32007,0.20576 0.13717,0.16004 0.0914,0.36579 -0.11431,0.59442 -0.43437,1.44031 -0.29721,0.84589 -0.86876,1.64606 -0.61727,0.8459 -1.348857,1.326 -0.708722,0.45724 -1.531754,0.45724 -0.823032,0 -1.577478,-0.54869 -0.731584,-0.57155 -1.074514,-1.34886 -0.251482,-0.52582 -0.34293,-1.1431 -0.09145,-0.61727 -0.06859,-1.25741 0.02286,-0.66299 0.160034,-1.30313 0.137172,-0.64014 0.365792,-1.23455 0.434378,-1.12024 1.165962,-1.76037 0.731584,-0.64014 1.60034,-0.73159 0.525826,-0.0457 0.891618,0.20576 0.365792,0.25148 0.525827,0.663 0.1829,0.38865 0.16004,0.86876 0,0.45724 -0.20576,0.86875 -0.06859,0.13717 -0.160039,0.22862 -0.09145,0.0914 -0.160034,0.11431 -0.04572,0.0229 -0.06859,-0.0229 0,-0.0457 0.11431,-0.22862 0.04572,-0.16003 0.02286,-0.20576 -0.02286,-0.0457 -0.06859,0.0457 -0.02286,0.0686 -0.137172,0.36579 -0.02286,0.0686 -0.11431,0.0457 -0.06859,-0.0457 -0.09145,-0.11431 -0.04572,-0.11431 -0.04572,-0.0229 0,0.0686 -0.06859,0.0686 -0.182896,-0.0229 -0.205758,-0.25149 -0.02286,-0.22862 -0.02286,-0.50296 0.02286,-0.27434 0.02286,-0.54869 0,-0.2972 -0.137172,-0.43438 l -0.205758,0.20576 q -0.617274,0.61728 -1.005928,2.33193 -0.04572,0.20575 -0.09145,0.54868 -0.02286,0.34293 -0.04572,0.70873 -0.02286,0.36579 -0.02286,0.68586 0,0.32006 0.02286,0.50296 0.04572,0.38865 0.137172,0.75445 0.09145,0.34293 0.205758,0.59441 0.22862,0.52582 0.57155,0.663 0.34293,0.11431 0.68586,-0.0229 0.365792,-0.13717 0.708722,-0.45724 0.365799,-0.34293 0.617279,-0.70872 0.45724,-0.64013 0.73158,-1.37172 0.29721,-0.75444 0.41152,-1.28027 0.0457,-0.20576 0.20576,-0.32007 0.16003,-0.13717 0.36579,-0.0914 z m -5.898397,-0.0229 q 0.09145,-0.38865 0.274344,-0.9602 0.182896,-0.57155 0.320068,-0.86876 0.11431,-0.27434 0.11431,-0.32007 -0.160034,0.1829 -0.297206,0.52583 -0.137172,0.32007 -0.251482,0.663 -0.09145,0.34293 -0.160034,0.64013 -0.06859,0.29721 -0.09145,0.41152 -0.04572,0.36579 -0.02286,0.34293 0.02286,-0.0229 0.11431,-0.43438 z m 0.708722,0.0229 q 0.09145,-0.43437 0.22862,-0.91448 0.160034,-0.4801 0.297206,-0.84589 0.04572,-0.0686 0.06859,-0.11431 0.02286,-0.0686 0.04572,-0.11431 0.02286,-0.0686 0.04572,-0.11431 -0.11431,0.0686 -0.251482,0.34293 -0.11431,0.25148 -0.22862,0.57155 -0.09145,0.29721 -0.160034,0.57155 -0.06859,0.27434 -0.09145,0.38865 -0.06859,0.48011 -0.06859,0.54869 0.02286,0.0686 0.11431,-0.32007 z m 11.979685,0.27435 q 0.1829,0.0686 0.27434,0.25148 0.0915,0.1829 0.0229,0.38865 0,0.0229 -0.20576,0.45724 -0.1829,0.43438 -0.59441,0.96021 -0.89162,1.1431 -2.12617,1.34886 l -0.0914,0.34293 q -0.27434,0.66299 -0.68586,1.18882 -0.41151,0.50296 -0.93734,0.75445 -0.52583,0.22862 -1.1431,0.13717 -0.59441,-0.0914 -1.25741,-0.64014 -0.43438,-0.36579 -0.68586,-1.05165 -0.25148,-0.68586 -0.20576,-1.41744 0.0229,-0.34293 0.0686,-0.68586 0.0229,-0.3658 0.0686,-0.68586 0.0229,-0.34293 0.0914,-0.59442 0.0457,-0.27434 0.0914,-0.43437 0.0457,-0.13718 0.0229,-0.20576 0,-0.0686 -0.0915,-0.32007 -0.13717,-0.38865 -0.16003,-0.80017 -0.0229,-0.43438 0.0914,-0.80017 0.0915,-0.32007 0.16003,-0.4801 0.0686,-0.1829 0.25148,-0.41152 0.16004,-0.22862 0.43438,-0.41151 0.29721,-0.20576 0.663,-0.32007 0.36579,-0.13717 0.75445,-0.13717 0.38865,0 0.7773,0.18289 0.1829,0.0914 0.52583,0.32007 0.34293,0.22862 0.57155,0.4801 0.9602,0.98307 1.09738,2.81203 0,0.18289 0,0.45724 0,0.27434 -0.0229,0.57155 0,0.2972 -0.0457,0.57155 -0.0229,0.27434 -0.0457,0.43438 0.61727,-0.25149 1.02879,-0.80017 0.34293,-0.43438 0.50296,-0.77731 0.16003,-0.36579 0.16003,-0.38866 0.0686,-0.18289 0.25149,-0.27434 0.18289,-0.0914 0.38865,-0.0229 z m -6.44708,-1.37172 0.25148,-0.11431 q 0.22862,-0.11431 0.27434,-0.11431 0,0.0457 -0.0457,0.16003 -0.0229,0.0914 0.0229,0.0457 -0.0457,0 0.0914,-0.0914 l 0.11431,-0.11431 q 0.0686,-0.0686 0.0914,-0.0457 0.0457,0 0.0457,0.0457 0.0229,0.0229 0.0229,0.0686 0,0.0229 0.0229,-0.0457 0.0457,-0.0457 0.0914,-0.0686 0.0686,-0.0229 0.0686,0.0229 0,0.0457 -0.0457,0.18289 -0.0457,0.13717 0,0.0686 0.0457,-0.0457 0.0686,-0.0457 0.0457,-0.0229 0.0914,-0.0686 0.0914,-0.0914 0.11431,-0.0686 0.0457,0.0229 0.0457,0.0686 0.0229,0.0457 0.0229,0.0914 0,0.0457 0.0457,-0.0229 l 0.0457,-0.0914 0.0915,0.13717 q 0.0457,0.0686 0.0457,0.11431 0.0229,0.0457 0,0.20576 0,0.16003 -0.0686,0.4801 -0.0686,0.2972 -0.1829,0.89162 l -0.20576,0.93734 q 0.25149,0.36579 0.68586,0.70872 0.43438,0.34293 1.09738,0.45724 l 0.0457,-0.1829 q 0.11431,-0.41151 0.13718,-0.7773 0.0457,-0.3658 0.0457,-0.8459 -0.0229,-1.71465 -0.80017,-2.65199 -0.13717,-0.1829 -0.38865,-0.34293 -0.22862,-0.1829 -0.50297,-0.27434 -0.27434,-0.11431 -0.54869,-0.0686 -0.27434,0.0229 -0.50296,0.25148 -0.32007,0.32007 -0.36579,0.86876 z m 1.82896,5.94412 q 0.0686,-0.0457 0.16003,-0.20576 0.11431,-0.16003 0.22862,-0.34293 0.11431,-0.1829 0.20576,-0.34293 0.0915,-0.1829 0.13717,-0.29721 -0.22862,0.0229 -0.50296,-0.0686 -0.27435,-0.11431 -0.50297,-0.22862 -0.22862,-0.13717 -0.38865,-0.25148 -0.13717,-0.11431 -0.0914,-0.11431 -0.0915,0 0,0.32006 0.0914,0.29721 0.22862,0.663 0.16003,0.36579 0.32007,0.64014 0.16003,0.27434 0.20576,0.22862 z m 10.95091,-4.61813 q 0.20576,0.0457 0.32007,0.22862 0.13717,0.16004 0.0914,0.34293 0,0.0229 -0.0686,0.32007 -0.0457,0.29721 -0.16004,0.77731 -0.0914,0.4801 -0.25148,1.09738 -0.13717,0.61727 -0.32007,1.28027 -0.22862,0.80017 -0.45724,1.4403 -0.20575,0.64014 -0.45724,1.16597 -0.66299,1.41744 -1.34885,1.80609 -0.32007,0.1829 -0.64014,0.1829 -0.34293,0 -0.68586,-0.16003 -0.34293,-0.13718 -0.663,-0.38866 -0.91448,-0.68586 -1.48603,-2.21761 -0.57155,-1.53176 -0.75444,-3.74937 -0.0229,-0.64014 -0.0686,-1.71465 -0.0457,-1.09738 0.0686,-2.35479 0.11431,-1.28027 0.4801,-2.62913 0.38865,-1.37172 1.23455,-2.583401 0.34293,-0.34293 1.1431,-0.320068 0.61727,0.09145 1.00592,0.502964 0.41152,0.388655 0.61728,0.960205 0.22862,0.57155 0.27434,1.21168 0.0457,0.61728 -0.0457,1.1431 -0.0686,0.45724 -0.22862,0.93735 -0.16004,0.4801 -0.41152,1.02879 -0.22862,0.54868 -0.59441,1.18882 -0.36579,0.61727 -0.84589,1.39458 l -0.22862,0.34293 q 0,0.50297 0.0229,1.02879 0.0229,0.52583 0.0229,1.00593 0.0229,0.45724 0.0457,0.82303 0.0229,0.34293 0.0457,0.52583 0.0457,0.38865 0.13717,0.89162 0.11431,0.50296 0.22862,0.82303 0.0457,0.16003 0.13717,0.36579 0.0915,0.20576 0.16004,0.38865 0.0914,0.1829 0.16003,0.32007 0.0914,0.16004 0.13717,0.1829 0.0915,0.0914 0.25148,0 0.0915,-0.0457 0.25149,-0.22862 0.18289,-0.1829 0.41151,-0.59441 0.22862,-0.43438 0.50297,-1.1431 0.2972,-0.70873 0.61727,-1.85183 0.1829,-0.64013 0.32007,-1.23454 0.13717,-0.61728 0.22862,-1.07452 0.11431,-0.4801 0.16003,-0.75444 0.0686,-0.29721 0.0686,-0.29721 0.0457,-0.20576 0.20576,-0.32007 0.16003,-0.13717 0.36579,-0.0915 z m -4.5724,-0.11431 0.13717,-0.25148 q 0.20576,-0.32007 0.38865,-0.70872 0.20576,-0.38865 0.3658,-0.77731 0.18289,-0.38865 0.32006,-0.75444 0.13718,-0.3658 0.20576,-0.64014 0.20576,-0.663 0.20576,-1.50889 0.0229,-0.8459 -0.41152,-1.50889 -0.11431,-0.16004 -0.20575,-0.25149 -0.0914,-0.11431 -0.22862,0.13718 -0.25149,0.43437 -0.43438,1.28027 -0.1829,0.84589 -0.25148,1.85182 -0.0457,0.52583 -0.0686,1.1431 -0.0229,0.61727 -0.0229,1.02879 v 0.68586 z m 0.0914,0.43438 q 0.0686,-0.0914 0.20575,-0.34293 0.43438,-0.70872 0.70873,-1.30313 0.2972,-0.59441 0.4801,-1.07452 0.0229,-0.0686 0.0457,-0.11431 0.0229,-0.0686 0.0457,-0.11431 0.0229,-0.0686 0.0229,-0.11431 -0.0229,0 -0.20576,0.38866 -0.16003,0.41151 -0.36579,0.84589 -0.20576,0.43438 -0.59441,1.09738 -0.27435,0.45724 -0.34293,0.64013 z m 0,0.45724 q 0.11431,-0.13717 0.38865,-0.61727 0.29721,-0.4801 0.59441,-1.00593 0.11431,-0.25148 0.27435,-0.57155 0.16003,-0.32007 0.27434,-0.57155 0.0457,-0.11431 0.0686,-0.22862 0.0457,-0.11431 0.0914,-0.20576 0.0457,-0.0915 0.0686,-0.18289 -0.0229,0.0229 -0.0457,0.0686 -0.0229,0.0457 -0.0686,0.1829 -0.0915,0.22862 -0.25148,0.57155 -0.16004,0.32007 -0.36579,0.70872 -0.20576,0.36579 -0.43438,0.77731 -0.22862,0.38865 -0.45724,0.75444 -0.0457,0.0686 -0.0914,0.13718 -0.0229,0.0686 -0.0457,0.11431 z m 15.84338,-0.73158 q 0.18289,0.0457 0.27434,0.22862 0.11431,0.18289 0.0686,0.38865 0,0 -0.13717,0.43438 -0.13718,0.41152 -0.3658,1.09738 -0.20575,0.68586 -0.50296,1.55461 -0.29721,0.86876 -0.64014,1.76038 -0.11431,0.32006 -0.2972,0.84589 -0.1829,0.50296 -0.43438,1.05165 -0.25148,0.57155 -0.57155,1.1431 -0.29721,0.57155 -0.663,1.00593 -0.36579,0.45724 -0.77731,0.73158 -0.41151,0.27435 -0.86875,0.25149 -0.54869,-0.0229 -0.91448,-0.32007 -0.34293,-0.27435 -0.57155,-0.70872 -0.20576,-0.41152 -0.29721,-0.91448 -0.0686,-0.48011 -0.0686,-0.96021 0.0229,-0.54869 0.20575,-1.41744 0.1829,-0.89162 0.41152,-1.71465 0.22862,-0.82303 0.41152,-1.41745 0.18289,-0.61727 0.20575,-0.64013 0.13718,-0.38866 0.27435,-0.80017 0.16003,-0.43438 0.27434,-0.86876 0.13717,-0.45724 0.1829,-0.89162 0.0686,-0.45724 0,-0.89161 -0.29721,0.11431 -0.59441,0.38865 -0.29721,0.27434 -0.57155,0.663 -0.27435,0.38865 -0.50297,0.84589 -0.22862,0.45724 -0.38865,0.91448 -0.27435,0.77731 -0.41152,1.57748 -0.13717,0.77731 -0.22862,1.57748 -0.0914,0.80017 -0.18289,1.6232 -0.0686,0.80017 -0.22862,1.6232 -0.0457,0.13717 -0.1829,0.25148 -0.11431,0.13718 -0.16003,0.0686 -0.0457,-0.0229 -0.0914,-0.0229 -0.0229,0 -0.16004,0.0457 l -0.0914,-0.0914 q 0,0.1829 -0.13718,0.16004 -0.38865,-0.0914 -0.73158,-0.4801 -0.32007,-0.3658 -0.59441,-0.86876 -0.27435,-0.4801 -0.4801,-0.98307 -0.1829,-0.52582 -0.29721,-0.89161 -0.50296,-1.5089 -0.77731,-3.08637 -0.25148,-1.57748 -0.36579,-3.17782 0,-0.50297 0.0686,-1.18883 0.0686,-0.70872 0.22862,-1.4403 0.16003,-0.75445 0.43437,-1.46317 0.27435,-0.73158 0.68586,-1.30313 0.41152,-0.57155 0.96021,-0.914483 0.57155,-0.365792 1.32599,-0.365792 0.61728,0.04572 0.96021,0.388654 0.36579,0.342931 0.52582,0.868751 0.16004,0.50297 0.13718,1.09738 -0.0229,0.59441 -0.16004,1.09738 -0.18289,0.61727 -0.663,1.53175 -0.45724,0.89162 -1.21168,1.98899 0.0229,0.64014 0.0457,1.44031 0.0457,0.80017 0.0914,1.55462 0.0457,0.73158 0.0686,1.30313 0.0457,0.57155 0.0686,0.70872 0.0229,0.0915 0.0457,0.0229 0.0229,-0.0914 0.0686,-0.38865 0.0914,-0.59441 0.29721,-1.326 0.20576,-0.73158 0.4801,-1.46316 0.29721,-0.73159 0.663,-1.39459 0.38865,-0.66299 0.84589,-1.12023 0.4801,-0.45724 1.00593,-0.64014 0.54869,-0.1829 1.16596,0.0457 0.663,0.20576 0.93734,0.8459 0.29721,0.61727 0.34293,1.41744 0,0.20576 -0.0229,0.52583 0,0.32007 -0.0457,0.68586 -0.0229,0.36579 -0.0915,0.70872 -0.0457,0.34293 -0.0914,0.59441 -0.18289,0.80017 -0.41151,1.55462 -0.22862,0.75444 -0.45724,1.50889 -0.22862,0.75445 -0.38866,1.53175 -0.16003,0.80017 -0.20576,1.62321 0.13718,-0.16004 0.34293,-0.45724 0.20576,-0.29721 0.45724,-0.77731 0.25149,-0.4801 0.54869,-1.16596 0.32007,-0.68586 0.68586,-1.62321 0.34293,-0.86875 0.64014,-1.71465 0.2972,-0.86875 0.50296,-1.53175 0.22862,-0.663 0.34293,-1.07451 0.13717,-0.43438 0.13717,-0.43438 0.0457,-0.20576 0.22862,-0.29721 0.1829,-0.0915 0.38866,-0.0457 z m -9.85352,-5.98985 q 0.0457,-0.11431 0.0686,-0.20575 0.0457,-0.0914 0.0229,-0.0914 -0.0229,-0.0229 -0.18289,0.22862 -0.16004,0.25148 -0.25148,0.43438 -0.20576,0.36579 -0.3658,1.46316 -0.0229,0.16004 -0.0457,0.34293 -0.0229,0.1829 -0.0457,0.32007 0,0.13717 0,0.1829 0,0.0457 0.0229,-0.0457 0.13717,-0.68586 0.36579,-1.4403 0.22862,-0.77731 0.41152,-1.18883 z m 1.78323,-0.75444 q -0.20576,0 -0.32007,0.34293 -0.0914,0.34293 -0.16003,0.84589 -0.0457,0.50297 -0.0686,1.09738 0,0.59441 0,1.12024 0,0.50296 -0.0229,0.84589 0,0.34293 -0.0457,0.36579 0.0229,0 0.11431,-0.18289 0.0915,-0.1829 0.20576,-0.41152 0.11431,-0.22862 0.22862,-0.45724 0.11431,-0.22862 0.16003,-0.36579 0.1829,-0.4801 0.32007,-1.07452 0.13717,-0.61727 0,-1.16596 -0.0229,-0.0457 -0.0686,-0.18289 -0.0457,-0.16004 -0.11431,-0.32007 -0.0457,-0.1829 -0.11431,-0.32007 -0.0686,-0.13717 -0.11431,-0.13717 z m 1.37172,7.01863 q 0.0229,-0.0686 0.0686,-0.16003 0.0229,-0.0457 0.0229,-0.0686 -0.0457,0 -0.22862,0.36579 -0.1829,0.3658 -0.36579,0.75445 -0.11431,0.22862 -0.25148,0.57155 -0.11431,0.32007 -0.22862,0.68586 -0.0914,0.36579 -0.1829,0.73158 -0.0686,0.3658 -0.11431,0.64014 -0.0457,0.1829 -0.0229,0.16003 0.0229,-0.0229 0.0915,-0.34293 0.45724,-1.94327 1.21168,-3.33785 z m 3.47503,2.35479 q 0,-0.0229 -0.0229,-0.0229 0,0 0,0.0457 0,0.0457 -0.0686,0.1829 -0.0457,0.13717 -0.16004,0.45724 -0.20575,0.70872 -0.36579,1.30313 -0.16003,0.57155 -0.20576,0.70872 -0.0686,0.32007 -0.0914,0.45724 0,0.11431 0.0457,-0.0914 0.0229,-0.0457 0.0914,-0.27434 0.0686,-0.22862 0.13717,-0.4801 0.0686,-0.22862 0.16003,-0.52583 0.11431,-0.32007 0.1829,-0.59441 0.0914,-0.27434 0.16003,-0.45724 0.0686,-0.20576 0.0686,-0.22862 0.0457,-0.1829 0.0686,-0.32007 0.0229,-0.13717 0,-0.16003 z m -2.83489,2.99492 q -0.0457,0.20576 -0.0229,0.16003 0.0229,-0.0686 0.13717,-0.45724 0.0686,-0.25148 0.11431,-0.41151 0.0457,-0.16004 0.13717,-0.38866 0.0915,-0.25148 0.20576,-0.64013 0.13717,-0.41152 0.36579,-1.12024 0.25148,-0.80017 0.36579,-1.23455 0.13717,-0.43438 0.1829,-0.75444 0.0457,-0.22862 0.0229,-0.27435 -0.0229,-0.0457 -0.0686,0.16004 0,0.0686 -0.13717,0.50296 -0.11431,0.41152 -0.2972,0.93734 -0.0686,0.25148 -0.20576,0.61728 -0.11431,0.36579 -0.22862,0.73158 -0.11431,0.34293 -0.22862,0.64014 -0.0915,0.2972 -0.11431,0.41151 -0.0686,0.32007 -0.13717,0.663 -0.0686,0.34293 -0.0915,0.45724 z m 0.34293,0.68586 q -0.0457,0.32007 -0.0457,0.36579 0,0.0457 0.0457,-0.11431 0.0457,-0.20576 0.18289,-0.663 0.13718,-0.45724 0.29721,-1.00592 0.16003,-0.57155 0.34293,-1.18883 0.1829,-0.64013 0.32007,-1.18882 0.16003,-0.54869 0.25148,-0.96021 0.11431,-0.43437 0.13717,-0.61727 0,-0.11431 0,-0.1829 0.0229,-0.0914 0.0229,-0.16003 0,-0.0914 0.0229,-0.13717 -0.0457,0 -0.0457,0.0686 0,0.11431 -0.16003,0.68586 -0.16004,0.54869 -0.50297,1.64607 -0.20575,0.70872 -0.36579,1.21168 -0.13717,0.48011 -0.25148,0.86876 -0.0915,0.36579 -0.16003,0.68586 -0.0457,0.32007 -0.0914,0.68586 z m 0.91448,0.52583 q 0.0686,-0.29721 0.18289,-0.75445 0.11431,-0.4801 0.22862,-0.91448 0.13718,-0.50296 0.29721,-1.05165 0.16003,-0.54869 0.27434,-0.86876 0.11431,-0.34293 0.16004,-0.57155 0.0686,-0.25148 0.0914,-0.43438 0.0457,-0.20575 0.0914,-0.45724 0.0229,-0.18289 0.0229,-0.32006 0.0229,-0.13718 0,-0.13718 0,0.0457 -0.0229,0.13718 -0.0229,0.0686 -0.0457,0.16003 -0.0229,0.0686 -0.0457,0.16003 -0.0457,0.1829 -0.13718,0.54869 -0.0914,0.34293 -0.18289,0.663 -0.0457,0.0914 -0.0457,0.16003 -0.0457,0.11431 -0.0914,0.22862 -0.0229,0.11431 -0.0686,0.22862 -0.0229,0.0686 -0.0914,0.27435 -0.0457,0.18289 -0.13717,0.41151 -0.0686,0.22862 -0.13717,0.43438 -0.0457,0.20576 -0.0686,0.29721 -0.11431,0.50296 -0.20576,1.05165 -0.0914,0.54869 -0.11431,0.75445 v 0.22862 z m 11.56819,-6.81288 q 0.1829,0.0457 0.27434,0.22862 0.0915,0.1829 0.0229,0.38865 0,0.0229 -0.0915,0.27435 -0.0915,0.25148 -0.25148,0.64013 -0.16004,0.38866 -0.41152,0.89162 -0.22862,0.50297 -0.50296,1.02879 -0.77731,1.37172 -1.55462,2.12617 -0.75445,0.75444 -1.55462,0.82303 -1.12023,-0.0686 -1.85182,-0.61727 -0.73158,-0.54869 -1.1431,-1.39459 -0.38865,-0.84589 -0.45724,-1.87468 -0.0914,-1.05165 0.0915,-2.08044 0.16003,-1.05165 0.54869,-1.989 0.38865,-0.93734 0.93734,-1.57747 0.57155,-0.663 1.30313,-1.05166 0.75445,-0.41151 1.69179,-0.16003 0.38866,0.11431 0.59441,0.38865 0.22862,0.27435 0.22862,0.61728 0,0.45724 -0.32006,1.07451 -0.29721,0.61728 -0.82304,1.25741 -0.41151,0.4801 -0.70872,0.77731 -0.2972,0.27434 -0.4801,0.4801 -0.1829,0.1829 -0.27434,0.32007 -0.0915,0.11431 -0.0915,0.29721 0,0.4801 -0.0229,1.00592 0,0.52583 0,1.02879 0,0.50297 0.0229,0.96021 0.0229,0.43438 0.11431,0.70872 0.0686,0.25148 0.20576,0.52583 0.13717,0.27434 0.22862,0.32006 0.27434,0.13718 0.64013,-0.16003 0.38866,-0.32007 0.75445,-0.75445 0.36579,-0.45724 0.64013,-0.89161 0.29721,-0.45724 0.38866,-0.61728 0.27434,-0.50296 0.50296,-0.98306 0.22862,-0.48011 0.36579,-0.8459 0.16004,-0.38865 0.25149,-0.61727 0.0914,-0.25148 0.0914,-0.25148 0.0686,-0.1829 0.25149,-0.27435 0.18289,-0.0915 0.38865,-0.0229 z m -4.82388,-1.18882 q -0.0686,0.25148 -0.11431,0.41151 -0.0457,0.16004 -0.0457,0.1829 0.0915,-0.0914 0.43438,-0.4801 0.36579,-0.38866 0.70872,-0.8459 0.34293,-0.4801 0.52583,-0.91448 0.1829,-0.45724 -0.0457,-0.70872 -0.0457,-0.0457 -0.0914,-0.0229 -0.0229,0 -0.1829,0.16003 -0.34293,0.36579 -0.663,0.96021 -0.2972,0.59441 -0.52582,1.25741 z m -1.02879,0.41151 q -0.0457,0.11431 -0.0914,0.32007 -0.0457,0.1829 -0.0915,0.38865 -0.0229,0.1829 -0.0457,0.32007 -0.0229,0.13717 -0.0229,0.16004 0.0914,0.0914 0.2972,-0.59442 0.0686,-0.20575 0.13717,-0.45724 0.0914,-0.27434 0.16004,-0.52582 0.0914,-0.25148 0.16003,-0.45724 0.0686,-0.20576 0.11431,-0.32007 0.16004,-0.41152 -0.11431,0.0915 -0.2972,0.50296 -0.50296,1.07451 z m -1.12024,1.30314 q -0.0457,0.43437 -0.0457,0.75444 0.0229,0.29721 0.0686,0.25148 0.0229,-0.0229 0.0229,-0.32006 0.0229,-0.32007 0.0686,-0.50297 0.13717,-0.59441 0.36579,-1.32599 0.25148,-0.73159 0.4801,-1.23455 0.16004,-0.34293 -0.11431,0.11431 -0.70872,1.23455 -0.84589,2.26334 z m 13.28282,-0.45724 q 0.1829,0.0457 0.27434,0.25148 0.11431,0.18289 0.0457,0.36579 -0.11431,0.20576 -0.34293,0.82303 -0.20576,0.59441 -0.50297,1.37172 -0.27434,0.77731 -0.64013,1.64607 -0.36579,0.84589 -0.80017,1.57747 -0.41152,0.70873 -0.89162,1.21169 -0.4801,0.50296 -1.00593,0.57155 -0.9602,0.0914 -1.53175,-0.27434 -0.54869,-0.3658 -0.80017,-1.00593 -0.25148,-0.663 -0.25148,-1.48603 0,-0.8459 0.16003,-1.69179 0.1829,-0.86876 0.4801,-1.66893 0.29721,-0.82303 0.64014,-1.41744 0.11431,-0.1829 0.18289,-0.36579 0.0686,-0.20576 0.0457,-0.20576 -0.0229,0.20576 -0.22862,0.45724 -0.20576,0.25148 -0.52583,0.43438 -0.32007,0.18289 -0.70872,0.22862 -0.38865,0.0457 -0.77731,-0.16004 -0.59441,-0.25148 -0.80017,-0.93734 -0.20576,-0.70872 -0.16003,-1.46317 0.0457,-0.7773 0.32007,-1.41744 0.25148,-0.663 0.59441,-0.84589 0.25148,-0.13718 0.54869,-0.16004 0.32006,-0.0229 0.59441,0.0457 0.27434,0.0457 0.50296,0.20575 0.22862,0.16004 0.32007,0.38866 0.13717,0.36579 0.11431,0.9602 -0.0229,0.57155 -0.22862,1.1431 0.29721,-0.25148 0.61727,-0.52582 0.32007,-0.27435 0.54869,-0.32007 1.09738,-0.20576 1.46317,0.16003 0.36579,0.36579 0.0229,1.57748 -0.20576,0.70872 -0.4801,1.60034 -0.25148,0.89162 -0.45724,1.82896 -0.1829,0.93734 -0.25148,1.85182 -0.0686,0.91448 0.13717,1.66893 0.16003,-0.13717 0.34293,-0.29721 0.1829,-0.18289 0.36579,-0.45724 0.20576,-0.2972 0.43438,-0.70872 0.25148,-0.41152 0.54869,-1.00593 0.32007,-0.663 0.57155,-1.30313 0.27434,-0.663 0.45724,-1.16596 0.20576,-0.52583 0.32007,-0.8459 0.11431,-0.34293 0.11431,-0.34293 0.0457,-0.18289 0.22862,-0.27434 0.20575,-0.0915 0.38865,-0.0229 z m -6.62998,-0.54869 q 0.11431,-0.80017 0.25148,-1.55462 0.16004,-0.77731 -0.0915,-1.37172 -0.11431,0.25148 -0.18289,0.43438 -0.0457,0.16003 -0.0915,0.27434 -0.0686,0.13718 -0.11431,0.48011 -0.0457,0.34293 -0.0457,0.70872 0,0.34293 0.0457,0.663 0.0686,0.2972 0.22862,0.36579 z m 3.31499,-0.25148 q -0.0457,-0.11431 -0.1829,0.18289 -0.13717,0.27435 -0.2972,0.68586 -0.13717,0.41152 -0.27435,0.80017 -0.11431,0.38866 -0.13717,0.4801 -0.2972,0.663 -0.50296,1.12024 -0.1829,0.45724 -0.29721,0.8459 -0.11431,0.36579 -0.16003,0.68586 -0.0229,0.32006 -0.0229,0.66299 v 0.41152 l 0.0229,-0.32007 q 0.18289,-0.93734 0.52582,-2.05758 0.34293,-1.1431 1.07452,-2.7663 0.11431,-0.27434 0.18289,-0.4801 0.0914,-0.22862 0.0686,-0.25148 z m -2.08044,3.49788 q -0.27435,0.70872 -0.32007,1.09738 -0.0457,0.38865 -0.0915,0.75444 -0.0229,0.11431 -0.0229,0.20576 0.0229,0.0915 0.0229,0.16004 v 0.16003 q 0.0457,0.0457 0.0686,-0.0457 0.0229,-0.0914 0.0686,-0.54869 0.11431,-0.77731 0.43438,-1.92041 0.34293,-1.16596 0.86876,-2.30906 0.0915,-0.1829 0.16003,-0.34293 0.0686,-0.1829 0.11431,-0.29721 0.0686,-0.13717 0.11431,-0.27434 -0.0229,0 -0.20576,0.43438 -0.18289,0.43437 -0.43437,1.00592 -0.22862,0.54869 -0.45724,1.12024 -0.22862,0.54869 -0.32007,0.80017 z"
         id="text1"
         transform="scale(0.95973508,1.0419542)"
         aria-label="Acolher" /><path
         style="font-stretch:condensed;font-size:4.10881px;line-height:1.25;font-family:Impact;-inkscape-font-specification:'Impact Condensed';text-align:center;text-anchor:middle;white-space:pre;fill:#ffffff;stroke-width:0.686873"
         d="m 89.949458,122.17679 -0.805066,-0.25549 0.171134,-0.53926 q 0.07464,-0.23521 0.06608,-0.30107 -0.006,-0.0672 -0.09401,-0.0951 -0.09944,-0.0315 -0.148663,0.0307 -0.04923,0.0623 -0.123869,0.29746 l -0.456357,1.43803 q -0.07161,0.22565 -0.06668,0.30299 0.0049,0.0773 0.09863,0.10707 0.08988,0.0285 0.138495,-0.0318 0.05053,-0.0597 0.131243,-0.31407 l 0.123193,-0.3882 0.805066,0.25549 -0.03823,0.12047 q -0.152321,0.47999 -0.284883,0.65893 -0.13065,0.17955 -0.411889,0.25658 -0.279326,0.0776 -0.619711,-0.0304 -0.35377,-0.11227 -0.542583,-0.31322 -0.188813,-0.20094 -0.191782,-0.45026 -0.0024,-0.25122 0.142069,-0.70635 l 0.287044,-0.9045 q 0.1062,-0.33465 0.181943,-0.49373 0.07635,-0.161 0.238331,-0.28009 0.163891,-0.11848 0.392595,-0.14273 0.231223,-0.0255 0.493205,0.0576 0.355682,0.11288 0.543373,0.32399 0.187691,0.21111 0.194817,0.4407 0.0077,0.22767 -0.130024,0.66176 z m 1.964716,1.0802 q -0.136571,0.47009 -0.216781,0.65989 -0.07772,0.18843 -0.242262,0.31612 -0.162612,0.12825 -0.386239,0.1573 -0.223626,0.029 -0.48757,-0.0476 -0.250458,-0.0728 -0.427316,-0.21189 -0.174372,-0.14049 -0.248172,-0.33951 -0.0738,-0.19903 -0.04095,-0.3984 0.03285,-0.19938 0.172781,-0.68103 l 0.155041,-0.53367 q 0.13657,-0.47009 0.214294,-0.65851 0.08021,-0.1898 0.242822,-0.31805 0.164539,-0.12769 0.388165,-0.15674 0.223627,-0.029 0.487571,0.0476 0.250458,0.0728 0.424829,0.21326 0.176859,0.13913 0.250658,0.33815 0.0738,0.19902 0.04095,0.3984 -0.03285,0.19938 -0.172781,0.68103 z m -0.513329,-1.26059 q 0.06325,-0.2177 0.05555,-0.2847 -0.0052,-0.0684 -0.08035,-0.0902 -0.06358,-0.0185 -0.112809,0.0216 -0.04675,0.0387 -0.116709,0.27947 l -0.423145,1.45651 q -0.07892,0.27165 -0.0762,0.34138 0.0046,0.0703 0.08557,0.0938 0.08284,0.0241 0.127232,-0.0424 0.04439,-0.0665 0.124428,-0.342 z m 3.084732,-0.0307 -0.818297,3.14336 -0.71643,-0.1865 -0.0532,-1.53967 -0.371999,1.42898 -0.683424,-0.17792 0.818297,-3.14336 0.683423,0.17791 0.08974,1.53467 0.368461,-1.41538 z m 1.759118,1.41297 -0.764841,-0.17427 0.05349,-0.23474 q 0.03744,-0.16431 0.01835,-0.21599 -0.01909,-0.0517 -0.08755,-0.0673 -0.07433,-0.0169 -0.127272,0.0348 -0.05098,0.0522 -0.07906,0.17541 -0.0361,0.15844 -0.01134,0.24845 0.0228,0.0896 0.188651,0.2467 0.475234,0.45192 0.570338,0.69376 0.0951,0.24184 -0.01098,0.7074 -0.07711,0.3384 -0.193859,0.48053 -0.114794,0.14257 -0.366664,0.20041 -0.251424,0.0559 -0.552666,-0.0128 -0.330584,-0.0753 -0.536792,-0.254 -0.204251,-0.17823 -0.232501,-0.38838 -0.02825,-0.21015 0.05287,-0.56616 l 0.04725,-0.20735 0.764841,0.17428 -0.08781,0.38535 q -0.04056,0.17801 -0.02085,0.236 0.02166,0.0584 0.103822,0.0772 0.08216,0.0187 0.135988,-0.0369 0.05579,-0.0552 0.08476,-0.18234 0.06374,-0.27972 0.0071,-0.38318 -0.05863,-0.10389 -0.319834,-0.37535 -0.260755,-0.27342 -0.339568,-0.38809 -0.07881,-0.11466 -0.108326,-0.29218 -0.02756,-0.17706 0.02994,-0.4294 0.0829,-0.36384 0.213174,-0.51112 0.132226,-0.14683 0.360969,-0.19348 0.229188,-0.0486 0.522606,0.0183 0.320803,0.0731 0.522133,0.22803 0.203286,0.15538 0.239559,0.33031 0.03867,0.17343 -0.04735,0.55096 z m 2.323877,-0.54737 -0.410471,2.13161 q -0.0698,0.36249 -0.121895,0.50569 -0.05171,0.14123 -0.197917,0.27448 -0.145824,0.13129 -0.352474,0.17526 -0.204301,0.0424 -0.462379,-0.007 -0.285659,-0.055 -0.486126,-0.19168 -0.200467,-0.13667 -0.27961,-0.30923 -0.07914,-0.17256 -0.0666,-0.34381 0.01292,-0.17322 0.11687,-0.71302 l 0.36343,-1.88732 0.829396,0.15972 -0.460547,2.39165 q -0.04021,0.20883 -0.02992,0.2721 0.01264,0.0617 0.08159,0.075 0.0788,0.0152 0.112612,-0.0437 0.03616,-0.0605 0.08206,-0.29884 l 0.452581,-2.35028 z m 1.060361,0.16849 -0.41388,2.56492 0.507043,0.0818 -0.10355,0.64173 -1.34089,-0.21637 0.51743,-3.20665 z m 2.015857,0.28115 -0.0859,0.64432 -0.49717,-0.0663 -0.34333,2.57531 -0.837223,-0.11161 0.343323,-2.57532 -0.495173,-0.066 0.0859,-0.64433 z m 1.81274,2.08996 q -0.0472,0.48725 -0.0909,0.68861 -0.0415,0.19957 -0.17955,0.35551 -0.13606,0.15614 -0.35044,0.22608 -0.21439,0.0699 -0.48796,0.0434 -0.2596,-0.0251 -0.45916,-0.12911 -0.19737,-0.10579 -0.30674,-0.28771 -0.10936,-0.18192 -0.11399,-0.38393 -0.005,-0.20201 0.0437,-0.70124 l 0.0536,-0.55315 q 0.0472,-0.48724 0.0887,-0.68681 0.0437,-0.20136 0.17974,-0.3575 0.13806,-0.15594 0.35244,-0.22589 0.21439,-0.0699 0.48796,-0.0434 0.2596,0.0251 0.45697,0.13092 0.19956,0.10398 0.30893,0.28591 0.10937,0.18192 0.11399,0.38393 0.005,0.20201 -0.0437,0.70124 z m -0.73783,-1.14377 q 0.0219,-0.22565 0.002,-0.29006 -0.0178,-0.0662 -0.0957,-0.0738 -0.0659,-0.006 -0.10687,0.0421 -0.0388,0.0466 -0.063,0.29625 l -0.14619,1.50967 q -0.0273,0.28156 -0.0117,0.34959 0.0176,0.0682 0.10145,0.0763 0.0859,0.008 0.11718,-0.0653 0.0313,-0.0736 0.059,-0.35912 z m 0.69186,-1.42054 -0.70938,0.47754 -0.40538,-0.0392 0.40386,-0.50713 z m 0.40967,0.68444 0.59696,0.0329 q 0.59696,0.0329 0.80475,0.0906 0.20981,0.0578 0.33153,0.25537 0.12384,0.1957 0.10099,0.61037 -0.0209,0.3786 -0.1222,0.50362 -0.10132,0.12502 -0.3792,0.13583 0.24698,0.0759 0.32738,0.18482 0.0804,0.10891 0.0956,0.19815 0.0173,0.0874 -0.004,0.47999 l -0.0471,0.85537 -0.78326,-0.0432 0.0594,-1.07773 q 0.0144,-0.26042 -0.0243,-0.32484 -0.0366,-0.0643 -0.21092,-0.0739 l -0.0806,1.46235 -0.84335,-0.0465 z m 0.81277,0.60137 -0.0397,0.72116 q 0.14223,0.008 0.20042,-0.0271 0.0603,-0.0369 0.0721,-0.25121 l 0.01,-0.17829 q 0.008,-0.15424 -0.0449,-0.20541 -0.0514,-0.0511 -0.19768,-0.0591 z m 2.13752,-0.47798 -0.0743,3.24728 -0.84442,-0.0193 0.0743,-3.24727 z m 2.19214,1.90069 q 9.6e-4,0.48953 -0.0227,0.69421 -0.0217,0.20267 -0.14372,0.37144 -0.12005,0.16876 -0.32652,0.25944 -0.20646,0.0907 -0.48132,0.0912 -0.26081,5.1e-4 -0.46963,-0.0833 -0.20681,-0.0859 -0.33354,-0.25615 -0.12672,-0.17029 -0.15119,-0.37087 -0.0245,-0.20057 -0.0254,-0.70214 l -0.001,-0.55573 q -9.5e-4,-0.48952 0.0207,-0.6922 0.0237,-0.20468 0.14372,-0.37344 0.12205,-0.16877 0.32852,-0.25945 0.20647,-0.0907 0.48133,-0.0912 0.26081,-5.1e-4 0.46762,0.0854 0.20882,0.0838 0.33554,0.25414 0.12673,0.17028 0.1512,0.37086 0.0245,0.20058 0.0254,0.70214 z m -0.84671,-1.06568 q -4.4e-4,-0.2267 -0.0266,-0.28885 -0.0242,-0.0641 -0.10245,-0.064 -0.0662,1.3e-4 -0.10222,0.0524 -0.034,0.0502 -0.0335,0.301 l 0.003,1.51673 q 5.6e-4,0.28288 0.0228,0.34904 0.0242,0.0662 0.10847,0.066 0.0863,-1.7e-4 0.1102,-0.0765 0.0239,-0.0763 0.0234,-0.36318 z m 1.85469,-0.81214 0.85061,-0.009 q 0.34506,-0.004 0.53018,0.0487 0.18713,0.0522 0.28047,0.1536 0.0953,0.10135 0.12895,0.24746 0.0356,0.14409 0.0387,0.44903 l 0.003,0.28287 q 0.003,0.31095 -0.0595,0.45405 -0.0627,0.1431 -0.23447,0.22111 -0.16974,0.078 -0.44658,0.0808 l -0.2267,0.002 0.0135,1.308 -0.84459,0.009 z m 0.85032,0.547 0.009,0.82654 q 0.0361,0.002 0.0622,0.001 0.11635,-0.001 0.15991,-0.0578 0.0455,-0.0587 0.0437,-0.23921 l -0.003,-0.26682 q -0.002,-0.16651 -0.0544,-0.21613 -0.0527,-0.0496 -0.21718,-0.0479 z m 2.90275,0.30778 -0.78316,0.0448 -0.0138,-0.24036 q -0.01,-0.16825 -0.0423,-0.2126 -0.0327,-0.0443 -0.10278,-0.0403 -0.0761,0.004 -0.11262,0.0687 -0.0345,0.0643 -0.0273,0.19046 0.009,0.16224 0.0581,0.24184 0.0468,0.0797 0.2497,0.18465 0.58199,0.30227 0.74048,0.50822 0.15849,0.20595 0.18578,0.68265 0.0198,0.34652 -0.0529,0.51547 -0.0707,0.16883 -0.29664,0.2943 -0.22604,0.12346 -0.5345,0.14112 -0.3385,0.0194 -0.58619,-0.0951 -0.2457,-0.11454 -0.33116,-0.30859 -0.0855,-0.19405 -0.10634,-0.5586 l -0.0121,-0.21231 0.78316,-0.0448 0.0226,0.39459 q 0.0104,0.18227 0.0455,0.23251 0.037,0.0501 0.12116,0.0453 0.0841,-0.005 0.1204,-0.0732 0.0383,-0.0685 0.0308,-0.1987 -0.0164,-0.28642 -0.0996,-0.37008 -0.0852,-0.0835 -0.41144,-0.27185 -0.3264,-0.1903 -0.43394,-0.27859 -0.10754,-0.0883 -0.18516,-0.25064 -0.0756,-0.16247 -0.0904,-0.42085 -0.0213,-0.37255 0.063,-0.5502 0.0863,-0.17776 0.29309,-0.28606 0.2067,-0.1103 0.50714,-0.1275 0.32849,-0.0188 0.56491,0.0742 0.23842,0.0929 0.32182,0.25086 0.0853,0.15588 0.10742,0.54245 z m 1.00779,-1.08378 0.29635,3.23458 -0.84111,0.0771 -0.29635,-3.23457 z m 2.36507,1.14498 -0.83816,0.10437 -0.0699,-0.56143 q -0.0305,-0.24487 -0.0658,-0.30113 -0.0336,-0.0585 -0.12515,-0.0471 -0.10353,0.0129 -0.12223,0.09 -0.0187,0.0771 0.0118,0.32202 l 0.18643,1.49714 q 0.0293,0.23492 0.0661,0.30312 0.0368,0.0682 0.13435,0.056 0.0936,-0.0116 0.11252,-0.0868 0.0209,-0.0754 -0.012,-0.34018 l -0.0503,-0.40415 0.83816,-0.10437 0.0156,0.12543 q 0.0622,0.49971 0.0166,0.71768 -0.0436,0.21772 -0.26695,0.40524 -0.22131,0.18728 -0.57569,0.23141 -0.36831,0.0459 -0.62383,-0.0578 -0.25551,-0.10364 -0.36241,-0.3289 -0.10715,-0.22724 -0.16615,-0.70107 l -0.11726,-0.94169 q -0.0434,-0.3484 -0.0411,-0.52458 0.002,-0.17817 0.0995,-0.35406 0.0994,-0.17614 0.29701,-0.29375 0.19938,-0.11985 0.47213,-0.15381 0.37031,-0.0461 0.62905,0.0672 0.25875,0.11335 0.36118,0.31894 0.10218,0.20361 0.15845,0.65553 z m 2.2136,0.13207 q 0.079,0.48311 0.0883,0.68895 0.0109,0.20354 -0.0827,0.38961 -0.0916,0.18574 -0.28096,0.30819 -0.18936,0.12245 -0.46061,0.16681 -0.2574,0.0421 -0.47691,-0.007 -0.21786,-0.0518 -0.37012,-0.19968 -0.15226,-0.14789 -0.2084,-0.342 -0.0561,-0.19411 -0.13709,-0.6891 l -0.0897,-0.54845 q -0.079,-0.48311 -0.0899,-0.68664 -0.009,-0.20584 0.0823,-0.39159 0.0936,-0.18607 0.28294,-0.30852 0.18937,-0.12245 0.46062,-0.16681 0.25739,-0.0421 0.47525,0.01 0.21952,0.0495 0.37178,0.19738 0.15226,0.1479 0.2084,0.34201 0.0561,0.19411 0.13709,0.6891 z m -1.00582,-0.91701 q -0.0366,-0.22373 -0.0724,-0.2809 -0.0341,-0.0595 -0.11134,-0.0468 -0.0653,0.0107 -0.0926,0.068 -0.0256,0.055 0.0149,0.3025 l 0.2448,1.49685 q 0.0457,0.27917 0.0781,0.34095 0.0344,0.0615 0.1176,0.0479 0.0851,-0.0139 0.0966,-0.0931 0.0115,-0.0791 -0.0348,-0.36226 z m 1.7471,-1.16498 0.49145,2.55119 0.50432,-0.0971 0.12296,0.6383 -1.33371,0.25691 -0.6144,-3.18949 z m 2.85766,1.33891 q 0.1043,0.47829 0.12437,0.68336 0.0216,0.20268 -0.062,0.39341 -0.0817,0.1903 -0.26438,0.32253 -0.18266,0.13224 -0.45121,0.1908 -0.25482,0.0556 -0.47664,0.0177 -0.22028,-0.0403 -0.3801,-0.17995 -0.15982,-0.13969 -0.22609,-0.33058 -0.0663,-0.19089 -0.17312,-0.68094 l -0.1184,-0.54297 q -0.1043,-0.47829 -0.12591,-0.68097 -0.0201,-0.20507 0.0616,-0.39537 0.0837,-0.19073 0.26634,-0.32296 0.18266,-0.13224 0.45121,-0.1908 0.25482,-0.0556 0.4751,-0.0153 0.22181,0.0379 0.38164,0.17756 0.15982,0.13969 0.22609,0.33058 0.0663,0.19089 0.17312,0.68094 z m -1.05263,-0.86287 q -0.0483,-0.2215 -0.087,-0.27671 -0.0372,-0.0576 -0.11364,-0.0409 -0.0647,0.0141 -0.0889,0.0728 -0.0226,0.0563 0.0308,0.3013 l 0.32314,1.48191 q 0.0603,0.27638 0.0959,0.33637 0.0376,0.0596 0.11995,0.0416 0.0843,-0.0184 0.0916,-0.098 0.007,-0.0796 -0.0538,-0.35993 z m 0.2236,-1.56417 -0.52907,0.67184 -0.39792,0.0868 0.22916,-0.60644 z m 2.81776,1.21627 -0.82048,0.20057 -0.07,-0.28649 q -0.0662,-0.27089 -0.10628,-0.33338 -0.0401,-0.0625 -0.12776,-0.0411 -0.076,0.0186 -0.089,0.0837 -0.013,0.0651 0.0461,0.30679 l 0.37016,1.51428 q 0.0519,0.21242 0.0959,0.27396 0.0435,0.0596 0.12533,0.0396 0.0897,-0.0219 0.10225,-0.10555 0.0146,-0.0841 -0.0393,-0.30432 l -0.0915,-0.37419 -0.16566,0.0405 -0.11719,-0.47943 0.96079,-0.23486 0.41399,1.69357 -0.51645,0.12625 -0.13127,-0.20749 q -0.0481,0.16665 -0.15859,0.27215 -0.10905,0.10307 -0.2825,0.14547 -0.20658,0.0505 -0.41212,-0.005 -0.20407,-0.0575 -0.33383,-0.18276 -0.12975,-0.12525 -0.19268,-0.28129 -0.0634,-0.15799 -0.14296,-0.48345 l -0.22914,-0.93741 q -0.11053,-0.45213 -0.11183,-0.66868 -0.001,-0.21654 0.18722,-0.4423 0.19,-0.2282 0.55638,-0.31776 0.36054,-0.0881 0.63451,0.002 0.27397,0.09 0.3961,0.277 0.12166,0.18506 0.21646,0.57288 z m 0.79732,-1.44765 0.82293,3.14216 -0.81708,0.21399 -0.82292,-3.14216 z m 2.56385,0.76601 -0.81408,0.22511 -0.15079,-0.54531 q -0.0658,-0.23784 -0.10888,-0.28836 -0.0417,-0.053 -0.13066,-0.0284 -0.10055,0.0278 -0.10784,0.10684 -0.007,0.079 0.0585,0.31687 l 0.4021,1.45414 q 0.0631,0.22817 0.10941,0.2903 0.0463,0.0621 0.14108,0.0359 0.0909,-0.0251 0.0987,-0.10222 0.01,-0.0776 -0.0614,-0.33482 l -0.10854,-0.39254 0.81408,-0.22511 0.0337,0.12183 q 0.13421,0.48535 0.12074,0.70764 -0.0115,0.22175 -0.20521,0.43974 -0.19173,0.21747 -0.53593,0.31264 -0.35773,0.0989 -0.6256,0.0335 -0.26787,-0.0654 -0.40637,-0.27272 -0.13905,-0.20925 -0.26631,-0.66947 l -0.25291,-0.91463 q -0.0936,-0.3384 -0.11689,-0.51305 -0.0238,-0.17658 0.0469,-0.36475 0.0727,-0.18871 0.25115,-0.33381 0.17984,-0.14756 0.44475,-0.22081 0.35967,-0.0995 0.63215,-0.0249 0.27247,0.0745 0.4037,0.26304 0.13069,0.18659 0.25207,0.62554 z m 2.2544,-0.15195 q 0.1372,0.46991 0.17144,0.67309 0.0356,0.2007 -0.0346,0.39677 -0.0683,0.1955 -0.24138,0.34008 -0.17306,0.14458 -0.4369,0.22161 -0.25036,0.0731 -0.47427,0.0507 -0.22254,-0.0249 -0.39166,-0.15317 -0.16912,-0.12827 -0.24846,-0.31411 -0.0793,-0.18584 -0.21991,-0.6673 l -0.15575,-0.53346 q -0.1372,-0.46991 -0.1728,-0.67061 -0.0342,-0.20318 0.0341,-0.39869 0.0702,-0.19607 0.2433,-0.34065 0.17306,-0.14458 0.4369,-0.22161 0.25036,-0.0731 0.4729,-0.0482 0.22391,0.0224 0.39303,0.15069 0.16912,0.12827 0.24846,0.31411 0.0793,0.18583 0.21991,0.6673 z m -1.10992,-0.78784 q -0.0635,-0.21762 -0.106,-0.27001 -0.0411,-0.0549 -0.11621,-0.0329 -0.0635,0.0186 -0.0836,0.0787 -0.0187,0.0577 0.0516,0.29844 l 0.42508,1.45594 q 0.0793,0.27154 0.11903,0.32891 0.0417,0.0568 0.12255,0.0332 0.0828,-0.0242 0.0846,-0.10411 0.002,-0.0799 -0.0787,-0.35532 z"
         id="text210"
         aria-label="CONSULTÓRIO PSICOLÓGICO" /><g
         id="g251"
         transform="matrix(1.2189955,0,0,1.2189955,-38.000868,-6.4850524)"
         style="fill:#ffffff;stroke-width:0.820348"><path
           id="path211"
           style="fill:#ffffff;fill-opacity:1;stroke:none;stroke-width:0.0820345;stroke-linejoin:round;stroke-opacity:1"
           d="m 121.82725,68.513514 c -2.33963,-2.333634 -1.81475,-3.460996 0,-5.778591 1.81376,2.479683 1.92893,3.350831 0,5.778591 z" /><path
           id="path212"
           style="fill:#ffffff;fill-opacity:1;stroke:none;stroke-width:0.0820345;stroke-linejoin:round;stroke-opacity:1"
           d="m 112.94928,69.781648 c -1.5407,-2.66734 -0.67473,-3.675089 1.82129,-5.62196 0.98305,2.720207 0.82053,3.587283 -1.82129,5.62196 z" /><path
           id="path213"
           style="fill:#ffffff;fill-opacity:1;stroke:none;stroke-width:0.0820345;stroke-linejoin:round;stroke-opacity:1"
           d="m 111.95294,70.386978 c -3.93526,-0.236496 -4.75005,-1.266969 -5.94218,-3.792648 3.7403,0.623454 4.7117,1.131459 5.94218,3.792648 z" /><path
           id="path214"
           style="fill:#ffffff;fill-opacity:1;stroke:none;stroke-width:0.0820345;stroke-linejoin:round;stroke-opacity:1"
           d="m 106.70588,75.107037 c -3.85955,0.611248 -5.04673,-0.201497 -7.186194,-2.364841 3.825974,-0.199434 4.956454,0.07998 7.186194,2.364841 z" /><path
           id="path215"
           style="fill:#ffffff;fill-opacity:1;stroke:none;stroke-width:0.0820345;stroke-linejoin:round;stroke-opacity:1"
           d="m 118.07104,66.002995 c -1.76006,-0.975348 -1.7357,-1.643259 -1.29685,-3.103778 1.51494,1.116297 1.77131,1.570516 1.29685,3.103778 z" /><path
           id="path216"
           style="fill:#ffffff;fill-opacity:1;stroke:none;stroke-width:0.0820345;stroke-linejoin:round;stroke-opacity:1"
           d="m 110.77467,66.686373 c -1.71515,-0.620014 -1.84367,-1.192983 -1.7967,-2.492424 1.53814,0.769887 1.85771,1.126603 1.7967,2.492424 z" /><path
           id="path217"
           style="fill:#ffffff;fill-opacity:1;stroke:none;stroke-width:0.0820345;stroke-linejoin:round;stroke-opacity:1"
           d="m 115.84848,71.00981 c -0.34522,-2.010568 0.49628,-2.577746 2.6744,-3.564098 -0.0427,1.972252 -0.37575,2.537675 -2.6744,3.564098 z" /><path
           id="path218"
           style="fill:#ffffff;fill-opacity:1;stroke:none;stroke-width:0.0820345;stroke-linejoin:round;stroke-opacity:1"
           d="m 109.46889,74.498919 c -2.29707,-1.125192 -2.33025,-1.963223 -1.91992,-3.816911 2.00357,1.315215 2.36791,1.870145 1.91992,3.816911 z" /><path
           id="path219"
           style="fill:#ffffff;fill-opacity:1;stroke:none;stroke-width:0.0820345;stroke-linejoin:round;stroke-opacity:1"
           d="m 105.83836,72.151348 c -2.77468,-0.698319 -3.11834,-1.551886 -3.38177,-3.536089 2.54346,0.9517 3.12263,1.448865 3.38177,3.536089 z" /><path
           id="path220"
           style="fill:#ffffff;fill-opacity:1;stroke:none;stroke-width:0.0820345;stroke-linejoin:round;stroke-opacity:1"
           d="m 102.92141,76.603285 c -1.72371,0.818247 -2.51317,0.588267 -4.116884,-0.162453 1.814034,-0.615479 2.437674,-0.634498 4.116884,0.162453 z" /><path
           id="path221"
           style="fill:#ffffff;fill-opacity:1;stroke:none;stroke-width:0.0820345;stroke-linejoin:round;stroke-opacity:1"
           d="m 112.49659,79.222714 c -1.19072,2.4979 -2.62055,2.789363 -5.93982,2.981705 1.61237,-2.282465 2.44835,-2.795656 5.93982,-2.981705 z" /><path
           id="path222"
           style="fill:#ffffff;fill-opacity:1;stroke:none;stroke-width:0.0820345;stroke-linejoin:round;stroke-opacity:1"
           d="m 107.69576,78.73846 c -1.28759,1.876355 -2.45584,1.998127 -5.10028,1.899662 1.59005,-1.675058 2.32093,-2.016042 5.10028,-1.899662 z" /><path
           id="circle222"
           style="stroke-width:0.0820342;stroke-linejoin:round"
           d="m 124.20753,76.76236 a 2.5,2.5 0 0 1 -2.5,2.5 2.5,2.5 0 0 1 -2.5,-2.5 2.5,2.5 0 0 1 2.5,-2.5 2.5,2.5 0 0 1 2.5,2.5 z" /><path
           id="path223"
           style="fill:#ffffff;fill-opacity:1;stroke:none;stroke-width:0.0820345;stroke-linejoin:round"
           d="m 142.47023,78.33239 c 0,0 -2.55971,-0.200698 -6.45243,-1.146532 -1.90284,-0.462344 -5.2407,-1.531232 -6.5935,-2.012668 -2.68602,-0.955905 -7.46946,-3.62542 -7.46946,-3.62542 0,0 -4.97518,2.653378 -7.73949,3.611949 -1.44296,0.500369 -4.68475,1.596054 -6.7082,2.077705 -3.78221,0.900299 -6.34718,1.059375 -6.34718,1.059375 0,0 8.32801,-2.687354 12.46512,-4.548977 2.68828,-1.209671 8.18087,-4.24848 8.18087,-4.24848 0,0 5.30382,3.050914 8.11788,4.309624 4.03381,1.804295 12.54639,4.523424 12.54639,4.523424 z" /><path
           id="path224"
           style="fill:#ffffff;fill-opacity:1;stroke:none;stroke-width:0.0820345;stroke-linejoin:round"
           d="m 113.08689,70.156944 c 0,0 0.11021,0.969701 0.24991,1.443923 0.10093,0.342614 0.42276,1.00479 0.42276,1.00479 l -0.86718,0.400239 c 0,0 -0.14548,-0.726102 -0.13392,-1.091213 0.0187,-0.591234 0.32843,-1.757739 0.32843,-1.757739 z" /><path
           id="path225"
           style="fill:#ffffff;fill-opacity:1;stroke:none;stroke-width:0.0820345;stroke-linejoin:round"
           d="m 130.37103,70.312185 c 0,0 -0.11021,0.969701 -0.24991,1.443923 -0.10093,0.342615 -0.42277,1.00479 -0.42277,1.00479 l 0.86719,0.400238 c 0,0 0.14547,-0.726102 0.13392,-1.091212 -0.0187,-0.591234 -0.32843,-1.757739 -0.32843,-1.757739 z" /><g
           id="g248"
           style="fill:#ffffff;fill-opacity:1;stroke:none;stroke-width:0.957715"
           transform="matrix(1,0,0,0.73370454,27.813869,16.815834)"><path
             id="path226"
             style="fill:#ffffff;fill-opacity:1;stroke:none;stroke-width:0.0957715;stroke-linejoin:round;stroke-opacity:0.956863"
             d="m 94.013379,70.461169 c -2.33963,-3.180617 -1.81475,-4.717151 0,-7.875909 1.81376,3.379674 1.92893,4.567002 0,7.875909 z" /><path
             id="path227"
             style="fill:#ffffff;fill-opacity:1;stroke:none;stroke-width:0.0957715;stroke-linejoin:round;stroke-opacity:0.956863"
             d="m 85.135404,72.189568 c -1.540701,-3.635441 -0.674727,-5.008949 1.821292,-7.66243 0.983053,3.707496 0.820533,4.889274 -1.821292,7.66243 z" /><path
             id="path228"
             style="fill:#ffffff;fill-opacity:1;stroke:none;stroke-width:0.0957715;stroke-linejoin:round;stroke-opacity:0.956863"
             d="m 84.139068,73.014601 c -3.935263,-0.322332 -4.750048,-1.726811 -5.942184,-5.169177 3.740303,0.849735 4.711703,1.542119 5.942184,5.169177 z" /><path
             id="path229"
             style="fill:#ffffff;fill-opacity:1;stroke:none;stroke-width:0.0957715;stroke-linejoin:round;stroke-opacity:0.956863"
             d="m 78.892004,79.447788 c -3.859552,0.833098 -5.046723,-0.274629 -7.186184,-3.223151 3.825968,-0.271818 4.95645,0.109003 7.186184,3.223151 z" /><path
             id="path230"
             style="fill:#ffffff;fill-opacity:1;stroke:none;stroke-width:0.0957715;stroke-linejoin:round;stroke-opacity:0.956863"
             d="m 90.25717,67.039466 c -1.760058,-1.329346 -1.735703,-2.239674 -1.296856,-4.230283 1.514947,1.521454 1.771313,2.14053 1.296856,4.230283 z" /><path
             id="path231"
             style="fill:#ffffff;fill-opacity:1;stroke:none;stroke-width:0.0957715;stroke-linejoin:round;stroke-opacity:0.956863"
             d="m 82.960793,67.970874 c -1.715148,-0.845046 -1.843667,-1.625972 -1.796694,-3.39704 1.538134,1.049315 1.857706,1.5355 1.796694,3.39704 z" /><path
             id="path232"
             style="fill:#ffffff;fill-opacity:1;stroke:none;stroke-width:0.0957715;stroke-linejoin:round;stroke-opacity:0.956863"
             d="m 88.034605,73.863488 c -0.345217,-2.740297 0.496282,-3.51333 2.674398,-4.857676 -0.04272,2.688075 -0.375744,3.458716 -2.674398,4.857676 z" /><path
             id="path233"
             style="fill:#ffffff;fill-opacity:1;stroke:none;stroke-width:0.0957715;stroke-linejoin:round;stroke-opacity:0.956863"
             d="m 81.655016,78.618956 c -2.297073,-1.533577 -2.330247,-2.675768 -1.919915,-5.202245 2.003566,1.792568 2.367905,2.548907 1.919915,5.202245 z" /><path
             id="path234"
             style="fill:#ffffff;fill-opacity:1;stroke:none;stroke-width:0.0957715;stroke-linejoin:round;stroke-opacity:0.956863"
             d="m 78.024486,75.419342 c -2.774676,-0.951771 -3.118343,-2.115137 -3.381769,-4.8195 2.543459,1.297117 3.122629,1.974726 3.381769,4.8195 z" /><path
             id="path235"
             style="fill:#ffffff;fill-opacity:1;stroke:none;stroke-width:0.0957715;stroke-linejoin:round;stroke-opacity:0.956863"
             d="m 75.107541,81.487094 c -1.723716,1.115227 -2.513171,0.801777 -4.116879,-0.221415 1.814021,-0.838865 2.437669,-0.864786 4.116879,0.221415 z" /><path
             id="path236"
             style="fill:#ffffff;fill-opacity:1;stroke:none;stroke-width:0.0957715;stroke-linejoin:round;stroke-opacity:0.956863"
             d="m 84.682713,85.057236 c -1.19072,3.404504 -2.620547,3.801752 -5.939817,4.063904 1.612367,-3.110877 2.448355,-3.81033 5.939817,-4.063904 z" /><path
             id="path237"
             style="fill:#ffffff;fill-opacity:1;stroke:none;stroke-width:0.0957715;stroke-linejoin:round;stroke-opacity:0.956863"
             d="m 79.88189,84.397223 c -1.287595,2.557372 -2.45584,2.72334 -5.100279,2.589138 1.590045,-2.283014 2.320927,-2.747757 5.100279,-2.589138 z" /><path
             id="path238"
             style="fill:#ffffff;fill-opacity:1;stroke:none;stroke-width:0.0957715;stroke-linejoin:round;stroke-opacity:0.956863"
             d="m 102.86193,72.204671 c 1.5407,-3.635441 0.67473,-5.008949 -1.82129,-7.66243 -0.98306,3.707496 -0.82053,4.889274 1.82129,7.66243 z" /><path
             id="path239"
             style="fill:#ffffff;fill-opacity:1;stroke:none;stroke-width:0.0957715;stroke-linejoin:round;stroke-opacity:0.956863"
             d="m 103.85827,73.029704 c 3.93526,-0.322332 4.75005,-1.726811 5.94218,-5.169177 -3.7403,0.849735 -4.7117,1.542119 -5.94218,5.169177 z" /><path
             id="path240"
             style="opacity:1;fill:#ffffff;fill-opacity:1;stroke:none;stroke-width:0.0957715;stroke-linejoin:round;stroke-opacity:0.956863"
             d="m 109.10533,79.462891 c 3.85955,0.833098 5.04672,-0.274629 7.18619,-3.223151 -3.82597,-0.271818 -4.95645,0.109003 -7.18619,3.223151 z" /><path
             id="path241"
             style="fill:#ffffff;fill-opacity:1;stroke:none;stroke-width:0.0957715;stroke-linejoin:round;stroke-opacity:0.956863"
             d="m 97.740162,67.054569 c 1.760058,-1.329346 1.735703,-2.239674 1.296856,-4.230283 -1.514947,1.521454 -1.771313,2.14053 -1.296856,4.230283 z" /><path
             id="path242"
             style="fill:#ffffff;fill-opacity:1;stroke:none;stroke-width:0.0957715;stroke-linejoin:round;stroke-opacity:0.956863"
             d="m 105.03654,67.985977 c 1.71515,-0.845046 1.84367,-1.625972 1.7967,-3.39704 -1.53814,1.049315 -1.85771,1.5355 -1.7967,3.39704 z" /><path
             id="path243"
             style="fill:#ffffff;fill-opacity:1;stroke:none;stroke-width:0.0957715;stroke-linejoin:round;stroke-opacity:0.956863"
             d="m 99.962727,73.878591 c 0.345223,-2.740297 -0.496282,-3.51333 -2.674398,-4.857676 0.04272,2.688075 0.375744,3.458716 2.674398,4.857676 z" /><path
             id="path244"
             style="fill:#ffffff;fill-opacity:1;stroke:none;stroke-width:0.0957715;stroke-linejoin:round;stroke-opacity:0.956863"
             d="m 106.34232,78.634059 c 2.29707,-1.533577 2.33025,-2.675768 1.91991,-5.202245 -2.00356,1.792568 -2.3679,2.548907 -1.91991,5.202245 z" /><path
             id="path245"
             style="fill:#ffffff;fill-opacity:1;stroke:none;stroke-width:0.0957715;stroke-linejoin:round;stroke-opacity:0.956863"
             d="m 109.97285,75.434445 c 2.77468,-0.951771 3.11834,-2.115137 3.38177,-4.8195 -2.54346,1.297117 -3.12263,1.974726 -3.38177,4.8195 z" /><path
             id="path246"
             style="fill:#ffffff;fill-opacity:1;stroke:none;stroke-width:0.0957715;stroke-linejoin:round;stroke-opacity:0.956863"
             d="m 112.88979,81.502197 c 1.72372,1.115227 2.51318,0.801777 4.11688,-0.221415 -1.81402,-0.838865 -2.43767,-0.864786 -4.11688,0.221415 z" /><path
             id="path247"
             style="fill:#ffffff;fill-opacity:1;stroke:none;stroke-width:0.0957715;stroke-linejoin:round;stroke-opacity:0.956863"
             d="m 103.31462,85.072339 c 1.19072,3.404504 2.62055,3.801752 5.93982,4.063904 -1.61237,-3.110877 -2.44836,-3.81033 -5.93982,-4.063904 z" /><path
             id="path248"
             style="fill:#ffffff;fill-opacity:1;stroke:none;stroke-width:0.0957715;stroke-linejoin:round;stroke-opacity:0.956863"
             d="m 108.11545,84.412326 c 1.28759,2.557372 2.45584,2.72334 5.10027,2.589138 -1.59004,-2.283014 -2.32092,-2.747757 -5.10027,-2.589138 z" /></g><path
           id="path249"
           style="fill:#ffffff;fill-opacity:1;stroke:none;stroke-width:0.0820345;stroke-linejoin:round"
           d="m 109.49412,76.738426 0.77869,-0.220015 c 0,0 2.21094,0.973343 3.38703,1.35484 0.72926,0.236554 2.26033,0.574351 2.26033,0.574351 0,0 -0.82531,-0.941862 -1.15548,-1.445043 -0.34501,-0.525782 -0.8557,-1.634168 -0.8557,-1.634168 l 0.76588,-0.291511 c 0,0 1.91474,2.212243 3.10651,3.17974 1.04028,0.844521 3.49028,2.259253 3.49028,2.259253 l -1.90879,2.802902 c 0,0 -1.38699,-1.649933 -2.31524,-2.327025 -0.58214,-0.424636 -1.34147,-0.694762 -1.9975,-1.056792 -1.88087,-1.037938 -5.55601,-3.196532 -5.55601,-3.196532 z" /><path
           id="path250"
           style="fill:#ffffff;fill-opacity:1;stroke:none;stroke-width:0.0820345;stroke-linejoin:round"
           d="m 128.74707,75.001782 1.10462,0.425743 -2.49992,3.143189 c 0,0 2.24401,-0.486321 3.29321,-0.857557 0.92922,-0.328788 2.62602,-1.201669 2.62602,-1.201669 l 0.93979,0.269257 c 0,0 -1.82882,1.062343 -2.81013,1.522086 -1.40633,0.658871 -3.06527,1.019871 -4.39146,1.762839 -0.75898,0.425209 -1.46526,0.927024 -1.98849,1.513138 -0.41241,0.461925 -0.66615,0.997769 -0.86379,1.530595 -0.26757,0.721321 -0.20152,1.49142 -0.42311,2.221087 -0.23862,0.785785 -0.5612,1.56093 -0.9715,2.30758 -0.4985,0.90716 -1.80023,2.620268 -1.80023,2.620268 0,0 -4.37848,0.09636 -6.54934,0.291661 -1.33979,0.120529 -2.66303,0.329764 -3.98154,0.541824 -1.77065,0.284779 -5.27141,0.980159 -5.27141,0.980159 0,0 2.61811,-0.972439 3.9757,-1.377564 1.29763,-0.387233 2.61678,-0.74845 3.97394,-1.003169 0.94279,-0.176948 1.9104,-0.282556 2.8776,-0.361332 0.8511,-0.06932 2.56558,-0.09723 2.56558,-0.09723 0,0 0.31933,-3.016089 0.79249,-4.482097 0.28188,-0.873403 0.6291,-1.752218 1.21014,-2.542066 0.59611,-0.810339 1.45527,-1.505184 2.29012,-2.192749 1.1783,-0.970425 2.68535,-1.71271 3.81822,-2.711831 0.80294,-0.708141 2.08349,-2.302158 2.08349,-2.302158 z" /><path
           id="path251"
           style="fill:#ffffff;fill-opacity:1;stroke:none;stroke-width:0.0820345;stroke-linejoin:round"
           d="m 124.1879,86.086747 0.84998,2.974236 c 0,0 3.33808,0.209777 4.96791,0.477253 1.29378,0.212326 2.5578,0.526956 3.78777,0.889962 1.65638,0.488867 4.81122,1.726949 4.81122,1.726949 0,0 -4.67348,-1.006202 -7.06378,-1.331409 -1.53166,-0.208394 -3.08918,-0.306212 -4.64233,-0.394308 -1.68444,-0.09553 -5.06454,-0.14517 -5.06454,-0.14517 0,0 1.04511,-1.343314 1.44372,-2.056924 0.38633,-0.691606 0.91005,-2.140589 0.91005,-2.140589 z" /></g></g></g></svg>
