<?xml version="1.0" encoding="UTF-8" standalone="no"?>
<!-- Created with Inkscape (http://www.inkscape.org/) -->

<svg
   width="143.51518mm"
   height="36.367661mm"
   viewBox="0 0 143.51518 36.367661"
   version="1.1"
   id="svg1"
   xml:space="preserve"
   xmlns="http://www.w3.org/2000/svg"
   xmlns:svg="http://www.w3.org/2000/svg"><defs
     id="defs1"><rect
       x="518.31543"
       y="576.13544"
       width="235.41019"
       height="86.730064"
       id="rect95" /></defs><g
     id="layer1"
     transform="translate(-58.959141,-186.80842)"><g
       id="g1"><g
         id="g95"
         transform="matrix(1.2189955,0,0,1.2189955,-61.483127,110.83937)"
         style="fill:#ffffff;stroke-width:0.820348"><path
           id="path55"
           style="fill:#ffffff;fill-opacity:1;stroke:none;stroke-width:0.0820345;stroke-linejoin:round;stroke-opacity:1"
           d="m 121.82725,68.513514 c -2.33963,-2.333634 -1.81475,-3.460996 0,-5.778591 1.81376,2.479683 1.92893,3.350831 0,5.778591 z" /><path
           id="path56"
           style="fill:#ffffff;fill-opacity:1;stroke:none;stroke-width:0.0820345;stroke-linejoin:round;stroke-opacity:1"
           d="m 112.94928,69.781648 c -1.5407,-2.66734 -0.67473,-3.675089 1.82129,-5.62196 0.98305,2.720207 0.82053,3.587283 -1.82129,5.62196 z" /><path
           id="path57"
           style="fill:#ffffff;fill-opacity:1;stroke:none;stroke-width:0.0820345;stroke-linejoin:round;stroke-opacity:1"
           d="m 111.95294,70.386978 c -3.93526,-0.236496 -4.75005,-1.266969 -5.94218,-3.792648 3.7403,0.623454 4.7117,1.131459 5.94218,3.792648 z" /><path
           id="path58"
           style="fill:#ffffff;fill-opacity:1;stroke:none;stroke-width:0.0820345;stroke-linejoin:round;stroke-opacity:1"
           d="m 106.70588,75.107037 c -3.85955,0.611248 -5.04673,-0.201497 -7.186194,-2.364841 3.825974,-0.199434 4.956454,0.07998 7.186194,2.364841 z" /><path
           id="path59"
           style="fill:#ffffff;fill-opacity:1;stroke:none;stroke-width:0.0820345;stroke-linejoin:round;stroke-opacity:1"
           d="m 118.07104,66.002995 c -1.76006,-0.975348 -1.7357,-1.643259 -1.29685,-3.103778 1.51494,1.116297 1.77131,1.570516 1.29685,3.103778 z" /><path
           id="path60"
           style="fill:#ffffff;fill-opacity:1;stroke:none;stroke-width:0.0820345;stroke-linejoin:round;stroke-opacity:1"
           d="m 110.77467,66.686373 c -1.71515,-0.620014 -1.84367,-1.192983 -1.7967,-2.492424 1.53814,0.769887 1.85771,1.126603 1.7967,2.492424 z" /><path
           id="path61"
           style="fill:#ffffff;fill-opacity:1;stroke:none;stroke-width:0.0820345;stroke-linejoin:round;stroke-opacity:1"
           d="m 115.84848,71.00981 c -0.34522,-2.010568 0.49628,-2.577746 2.6744,-3.564098 -0.0427,1.972252 -0.37575,2.537675 -2.6744,3.564098 z" /><path
           id="path62"
           style="fill:#ffffff;fill-opacity:1;stroke:none;stroke-width:0.0820345;stroke-linejoin:round;stroke-opacity:1"
           d="m 109.46889,74.498919 c -2.29707,-1.125192 -2.33025,-1.963223 -1.91992,-3.816911 2.00357,1.315215 2.36791,1.870145 1.91992,3.816911 z" /><path
           id="path63"
           style="fill:#ffffff;fill-opacity:1;stroke:none;stroke-width:0.0820345;stroke-linejoin:round;stroke-opacity:1"
           d="m 105.83836,72.151348 c -2.77468,-0.698319 -3.11834,-1.551886 -3.38177,-3.536089 2.54346,0.9517 3.12263,1.448865 3.38177,3.536089 z" /><path
           id="path64"
           style="fill:#ffffff;fill-opacity:1;stroke:none;stroke-width:0.0820345;stroke-linejoin:round;stroke-opacity:1"
           d="m 102.92141,76.603285 c -1.72371,0.818247 -2.51317,0.588267 -4.116884,-0.162453 1.814034,-0.615479 2.437674,-0.634498 4.116884,0.162453 z" /><path
           id="path65"
           style="fill:#ffffff;fill-opacity:1;stroke:none;stroke-width:0.0820345;stroke-linejoin:round;stroke-opacity:1"
           d="m 112.49659,79.222714 c -1.19072,2.4979 -2.62055,2.789363 -5.93982,2.981705 1.61237,-2.282465 2.44835,-2.795656 5.93982,-2.981705 z" /><path
           id="path66"
           style="fill:#ffffff;fill-opacity:1;stroke:none;stroke-width:0.0820345;stroke-linejoin:round;stroke-opacity:1"
           d="m 107.69576,78.73846 c -1.28759,1.876355 -2.45584,1.998127 -5.10028,1.899662 1.59005,-1.675058 2.32093,-2.016042 5.10028,-1.899662 z" /><circle
           style="fill:#ffffff;fill-opacity:1;stroke:none;stroke-width:0.0820342;stroke-linejoin:round;stroke-opacity:1"
           id="circle66"
           cx="121.70753"
           cy="76.76236"
           r="2.5" /><path
           id="path67"
           style="fill:#ffffff;fill-opacity:1;stroke:none;stroke-width:0.0820345;stroke-linejoin:round"
           d="m 142.47023,78.33239 c 0,0 -2.55971,-0.200698 -6.45243,-1.146532 -1.90284,-0.462344 -5.2407,-1.531232 -6.5935,-2.012668 -2.68602,-0.955905 -7.46946,-3.62542 -7.46946,-3.62542 0,0 -4.97518,2.653378 -7.73949,3.611949 -1.44296,0.500369 -4.68475,1.596054 -6.7082,2.077705 -3.78221,0.900299 -6.34718,1.059375 -6.34718,1.059375 0,0 8.32801,-2.687354 12.46512,-4.548977 2.68828,-1.209671 8.18087,-4.24848 8.18087,-4.24848 0,0 5.30382,3.050914 8.11788,4.309624 4.03381,1.804295 12.54639,4.523424 12.54639,4.523424 z" /><path
           id="path68"
           style="fill:#ffffff;fill-opacity:1;stroke:none;stroke-width:0.0820345;stroke-linejoin:round"
           d="m 113.08689,70.156944 c 0,0 0.11021,0.969701 0.24991,1.443923 0.10093,0.342614 0.42276,1.00479 0.42276,1.00479 l -0.86718,0.400239 c 0,0 -0.14548,-0.726102 -0.13392,-1.091213 0.0187,-0.591234 0.32843,-1.757739 0.32843,-1.757739 z" /><path
           id="path69"
           style="fill:#ffffff;fill-opacity:1;stroke:none;stroke-width:0.0820345;stroke-linejoin:round"
           d="m 130.37103,70.312185 c 0,0 -0.11021,0.969701 -0.24991,1.443923 -0.10093,0.342615 -0.42277,1.00479 -0.42277,1.00479 l 0.86719,0.400238 c 0,0 0.14547,-0.726102 0.13392,-1.091212 -0.0187,-0.591234 -0.32843,-1.757739 -0.32843,-1.757739 z" /><g
           id="g92"
           style="fill:#ffffff;fill-opacity:1;stroke:none;stroke-width:0.957715"
           transform="matrix(1,0,0,0.73370454,27.813869,16.815834)"><path
             id="path70"
             style="fill:#ffffff;fill-opacity:1;stroke:none;stroke-width:0.0957715;stroke-linejoin:round;stroke-opacity:0.956863"
             d="m 94.013379,70.461169 c -2.33963,-3.180617 -1.81475,-4.717151 0,-7.875909 1.81376,3.379674 1.92893,4.567002 0,7.875909 z" /><path
             id="path71"
             style="fill:#ffffff;fill-opacity:1;stroke:none;stroke-width:0.0957715;stroke-linejoin:round;stroke-opacity:0.956863"
             d="m 85.135404,72.189568 c -1.540701,-3.635441 -0.674727,-5.008949 1.821292,-7.66243 0.983053,3.707496 0.820533,4.889274 -1.821292,7.66243 z" /><path
             id="path72"
             style="fill:#ffffff;fill-opacity:1;stroke:none;stroke-width:0.0957715;stroke-linejoin:round;stroke-opacity:0.956863"
             d="m 84.139068,73.014601 c -3.935263,-0.322332 -4.750048,-1.726811 -5.942184,-5.169177 3.740303,0.849735 4.711703,1.542119 5.942184,5.169177 z" /><path
             id="path73"
             style="fill:#ffffff;fill-opacity:1;stroke:none;stroke-width:0.0957715;stroke-linejoin:round;stroke-opacity:0.956863"
             d="m 78.892004,79.447788 c -3.859552,0.833098 -5.046723,-0.274629 -7.186184,-3.223151 3.825968,-0.271818 4.95645,0.109003 7.186184,3.223151 z" /><path
             id="path74"
             style="fill:#ffffff;fill-opacity:1;stroke:none;stroke-width:0.0957715;stroke-linejoin:round;stroke-opacity:0.956863"
             d="m 90.25717,67.039466 c -1.760058,-1.329346 -1.735703,-2.239674 -1.296856,-4.230283 1.514947,1.521454 1.771313,2.14053 1.296856,4.230283 z" /><path
             id="path75"
             style="fill:#ffffff;fill-opacity:1;stroke:none;stroke-width:0.0957715;stroke-linejoin:round;stroke-opacity:0.956863"
             d="m 82.960793,67.970874 c -1.715148,-0.845046 -1.843667,-1.625972 -1.796694,-3.39704 1.538134,1.049315 1.857706,1.5355 1.796694,3.39704 z" /><path
             id="path76"
             style="fill:#ffffff;fill-opacity:1;stroke:none;stroke-width:0.0957715;stroke-linejoin:round;stroke-opacity:0.956863"
             d="m 88.034605,73.863488 c -0.345217,-2.740297 0.496282,-3.51333 2.674398,-4.857676 -0.04272,2.688075 -0.375744,3.458716 -2.674398,4.857676 z" /><path
             id="path77"
             style="fill:#ffffff;fill-opacity:1;stroke:none;stroke-width:0.0957715;stroke-linejoin:round;stroke-opacity:0.956863"
             d="m 81.655016,78.618956 c -2.297073,-1.533577 -2.330247,-2.675768 -1.919915,-5.202245 2.003566,1.792568 2.367905,2.548907 1.919915,5.202245 z" /><path
             id="path78"
             style="fill:#ffffff;fill-opacity:1;stroke:none;stroke-width:0.0957715;stroke-linejoin:round;stroke-opacity:0.956863"
             d="m 78.024486,75.419342 c -2.774676,-0.951771 -3.118343,-2.115137 -3.381769,-4.8195 2.543459,1.297117 3.122629,1.974726 3.381769,4.8195 z" /><path
             id="path79"
             style="fill:#ffffff;fill-opacity:1;stroke:none;stroke-width:0.0957715;stroke-linejoin:round;stroke-opacity:0.956863"
             d="m 75.107541,81.487094 c -1.723716,1.115227 -2.513171,0.801777 -4.116879,-0.221415 1.814021,-0.838865 2.437669,-0.864786 4.116879,0.221415 z" /><path
             id="path80"
             style="fill:#ffffff;fill-opacity:1;stroke:none;stroke-width:0.0957715;stroke-linejoin:round;stroke-opacity:0.956863"
             d="m 84.682713,85.057236 c -1.19072,3.404504 -2.620547,3.801752 -5.939817,4.063904 1.612367,-3.110877 2.448355,-3.81033 5.939817,-4.063904 z" /><path
             id="path81"
             style="fill:#ffffff;fill-opacity:1;stroke:none;stroke-width:0.0957715;stroke-linejoin:round;stroke-opacity:0.956863"
             d="m 79.88189,84.397223 c -1.287595,2.557372 -2.45584,2.72334 -5.100279,2.589138 1.590045,-2.283014 2.320927,-2.747757 5.100279,-2.589138 z" /><path
             id="path82"
             style="fill:#ffffff;fill-opacity:1;stroke:none;stroke-width:0.0957715;stroke-linejoin:round;stroke-opacity:0.956863"
             d="m 102.86193,72.204671 c 1.5407,-3.635441 0.67473,-5.008949 -1.82129,-7.66243 -0.98306,3.707496 -0.82053,4.889274 1.82129,7.66243 z" /><path
             id="path83"
             style="fill:#ffffff;fill-opacity:1;stroke:none;stroke-width:0.0957715;stroke-linejoin:round;stroke-opacity:0.956863"
             d="m 103.85827,73.029704 c 3.93526,-0.322332 4.75005,-1.726811 5.94218,-5.169177 -3.7403,0.849735 -4.7117,1.542119 -5.94218,5.169177 z" /><path
             id="path84"
             style="opacity:1;fill:#ffffff;fill-opacity:1;stroke:none;stroke-width:0.0957715;stroke-linejoin:round;stroke-opacity:0.956863"
             d="m 109.10533,79.462891 c 3.85955,0.833098 5.04672,-0.274629 7.18619,-3.223151 -3.82597,-0.271818 -4.95645,0.109003 -7.18619,3.223151 z" /><path
             id="path85"
             style="fill:#ffffff;fill-opacity:1;stroke:none;stroke-width:0.0957715;stroke-linejoin:round;stroke-opacity:0.956863"
             d="m 97.740162,67.054569 c 1.760058,-1.329346 1.735703,-2.239674 1.296856,-4.230283 -1.514947,1.521454 -1.771313,2.14053 -1.296856,4.230283 z" /><path
             id="path86"
             style="fill:#ffffff;fill-opacity:1;stroke:none;stroke-width:0.0957715;stroke-linejoin:round;stroke-opacity:0.956863"
             d="m 105.03654,67.985977 c 1.71515,-0.845046 1.84367,-1.625972 1.7967,-3.39704 -1.53814,1.049315 -1.85771,1.5355 -1.7967,3.39704 z" /><path
             id="path87"
             style="fill:#ffffff;fill-opacity:1;stroke:none;stroke-width:0.0957715;stroke-linejoin:round;stroke-opacity:0.956863"
             d="m 99.962727,73.878591 c 0.345223,-2.740297 -0.496282,-3.51333 -2.674398,-4.857676 0.04272,2.688075 0.375744,3.458716 2.674398,4.857676 z" /><path
             id="path88"
             style="fill:#ffffff;fill-opacity:1;stroke:none;stroke-width:0.0957715;stroke-linejoin:round;stroke-opacity:0.956863"
             d="m 106.34232,78.634059 c 2.29707,-1.533577 2.33025,-2.675768 1.91991,-5.202245 -2.00356,1.792568 -2.3679,2.548907 -1.91991,5.202245 z" /><path
             id="path89"
             style="fill:#ffffff;fill-opacity:1;stroke:none;stroke-width:0.0957715;stroke-linejoin:round;stroke-opacity:0.956863"
             d="m 109.97285,75.434445 c 2.77468,-0.951771 3.11834,-2.115137 3.38177,-4.8195 -2.54346,1.297117 -3.12263,1.974726 -3.38177,4.8195 z" /><path
             id="path90"
             style="fill:#ffffff;fill-opacity:1;stroke:none;stroke-width:0.0957715;stroke-linejoin:round;stroke-opacity:0.956863"
             d="m 112.88979,81.502197 c 1.72372,1.115227 2.51318,0.801777 4.11688,-0.221415 -1.81402,-0.838865 -2.43767,-0.864786 -4.11688,0.221415 z" /><path
             id="path91"
             style="fill:#ffffff;fill-opacity:1;stroke:none;stroke-width:0.0957715;stroke-linejoin:round;stroke-opacity:0.956863"
             d="m 103.31462,85.072339 c 1.19072,3.404504 2.62055,3.801752 5.93982,4.063904 -1.61237,-3.110877 -2.44836,-3.81033 -5.93982,-4.063904 z" /><path
             id="path92"
             style="fill:#ffffff;fill-opacity:1;stroke:none;stroke-width:0.0957715;stroke-linejoin:round;stroke-opacity:0.956863"
             d="m 108.11545,84.412326 c 1.28759,2.557372 2.45584,2.72334 5.10027,2.589138 -1.59004,-2.283014 -2.32092,-2.747757 -5.10027,-2.589138 z" /></g><path
           id="path93"
           style="fill:#ffffff;fill-opacity:1;stroke:none;stroke-width:0.0820345;stroke-linejoin:round"
           d="m 109.49412,76.738426 0.77869,-0.220015 c 0,0 2.21094,0.973343 3.38703,1.35484 0.72926,0.236554 2.26033,0.574351 2.26033,0.574351 0,0 -0.82531,-0.941862 -1.15548,-1.445043 -0.34501,-0.525782 -0.8557,-1.634168 -0.8557,-1.634168 l 0.76588,-0.291511 c 0,0 1.91474,2.212243 3.10651,3.17974 1.04028,0.844521 3.49028,2.259253 3.49028,2.259253 l -1.90879,2.802902 c 0,0 -1.38699,-1.649933 -2.31524,-2.327025 -0.58214,-0.424636 -1.34147,-0.694762 -1.9975,-1.056792 -1.88087,-1.037938 -5.55601,-3.196532 -5.55601,-3.196532 z" /><path
           id="path94"
           style="fill:#ffffff;fill-opacity:1;stroke:none;stroke-width:0.0820345;stroke-linejoin:round"
           d="m 128.74707,75.001782 1.10462,0.425743 -2.49992,3.143189 c 0,0 2.24401,-0.486321 3.29321,-0.857557 0.92922,-0.328788 2.62602,-1.201669 2.62602,-1.201669 l 0.93979,0.269257 c 0,0 -1.82882,1.062343 -2.81013,1.522086 -1.40633,0.658871 -3.06527,1.019871 -4.39146,1.762839 -0.75898,0.425209 -1.46526,0.927024 -1.98849,1.513138 -0.41241,0.461925 -0.66615,0.997769 -0.86379,1.530595 -0.26757,0.721321 -0.20152,1.49142 -0.42311,2.221087 -0.23862,0.785785 -0.5612,1.56093 -0.9715,2.30758 -0.4985,0.90716 -1.80023,2.620268 -1.80023,2.620268 0,0 -4.37848,0.09636 -6.54934,0.291661 -1.33979,0.120529 -2.66303,0.329764 -3.98154,0.541824 -1.77065,0.284779 -5.27141,0.980159 -5.27141,0.980159 0,0 2.61811,-0.972439 3.9757,-1.377564 1.29763,-0.387233 2.61678,-0.74845 3.97394,-1.003169 0.94279,-0.176948 1.9104,-0.282556 2.8776,-0.361332 0.8511,-0.06932 2.56558,-0.09723 2.56558,-0.09723 0,0 0.31933,-3.016089 0.79249,-4.482097 0.28188,-0.873403 0.6291,-1.752218 1.21014,-2.542066 0.59611,-0.810339 1.45527,-1.505184 2.29012,-2.192749 1.1783,-0.970425 2.68535,-1.71271 3.81822,-2.711831 0.80294,-0.708141 2.08349,-2.302158 2.08349,-2.302158 z" /><path
           id="path95"
           style="fill:#ffffff;fill-opacity:1;stroke:none;stroke-width:0.0820345;stroke-linejoin:round"
           d="m 124.1879,86.086747 0.84998,2.974236 c 0,0 3.33808,0.209777 4.96791,0.477253 1.29378,0.212326 2.5578,0.526956 3.78777,0.889962 1.65638,0.488867 4.81122,1.726949 4.81122,1.726949 0,0 -4.67348,-1.006202 -7.06378,-1.331409 -1.53166,-0.208394 -3.08918,-0.306212 -4.64233,-0.394308 -1.68444,-0.09553 -5.06454,-0.14517 -5.06454,-0.14517 0,0 1.04511,-1.343314 1.44372,-2.056924 0.38633,-0.691606 0.91005,-2.140589 0.91005,-2.140589 z" /></g><text
         xml:space="preserve"
         transform="matrix(3.5325956,0,0,3.5325956,-2088.2733,-1858.5697)"
         id="text95"
         style="font-size:10.6667px;line-height:1.25;font-family:Arial;-inkscape-font-specification:Arial;text-align:center;white-space:pre;shape-inside:url(#rect95);stroke-width:0.0748976"><tspan
           x="624.0321"
           y="585.74284"
           id="tspan4"><tspan
             style="font-family:'Better Together';-inkscape-font-specification:'Better Together';fill:#ffffff"
             id="tspan3">Acolher</tspan></tspan></text><text
         xml:space="preserve"
         style="font-size:5.94619px;line-height:1.25;font-family:Arial;-inkscape-font-specification:Arial;text-align:center;text-anchor:middle;stroke-width:0.264583"
         x="141.18509"
         y="249.13437"
         id="text96"
         transform="scale(1.1209298,0.89211652)"><tspan
           id="tspan96"
           style="font-style:normal;font-variant:normal;font-weight:normal;font-stretch:normal;font-family:'Arial Black';-inkscape-font-specification:'Arial Black, ';fill:#ffffff;stroke-width:0.264583"
           x="141.18509"
           y="249.13437">CLÍNICA PSICOLÓGICA</tspan></text></g></g></svg>
