<?xml version="1.0" encoding="UTF-8" standalone="no"?>
<!-- Created with Inkscape (http://www.inkscape.org/) -->

<svg
   width="56.0933mm"
   height="35.863121mm"
   viewBox="0 0 56.0933 35.863121"
   version="1.1"
   id="svg1"
   xml:space="preserve"
   xmlns="http://www.w3.org/2000/svg"
   xmlns:svg="http://www.w3.org/2000/svg"><defs
     id="defs1" /><g
     id="layer1"
     transform="translate(-125.54828,-211.07265)"><g
       id="g54"
       transform="matrix(1.6675005,0,0,1.6675005,-44.773817,-74.688633)"
       style="stroke-width:0.5997"><path
         id="path43"
         style="opacity:1;fill:#eb822f;fill-opacity:1;stroke:none;stroke-width:0.05997;stroke-linejoin:round;stroke-opacity:0.956863"
         d="m 94.112489,157.99172 c -0.09303,2.46147 -1.817939,3.43885 -3.740697,4.47131 1.389644,-1.33527 1.131662,-2.80565 -0.197362,-3.50109 -1.443644,-0.75541 -1.331841,-2.16053 -1.215724,-3.29963 0,0 -1.800508,1.48475 -2.089665,3.52125 -0.240709,1.69529 0.642266,2.58963 1.203112,3.42049 -1.262599,-0.36589 -3.965375,-2.48717 -3.527128,-5.57111 0.491087,-3.45577 5.366124,-5.02185 4.391958,-9.10009 0.444172,0.58307 1.191052,1.13566 1.551255,1.70003 0.796751,1.12229 1.000241,2.91429 0.848308,3.79628 -0.14892,0.76766 -0.973635,2.7001 0.46157,2.61599 0.427935,-0.0599 1.138631,-0.47803 0.785859,-2.1601 0.50827,0.55415 0.846797,1.4491 1.049084,1.9916 0.273615,0.7338 0.501153,1.33134 0.47943,2.11507 z" /><g
         id="g49"
         style="stroke-width:0.5997"><path
           id="rect43"
           style="opacity:1;fill:#774a2b;fill-opacity:1;stroke:none;stroke-width:0.05997;stroke-linejoin:round;stroke-opacity:0.956863"
           d="m 74.408519,154.19013 c 0,0 0.468559,-0.0392 0.680322,0.0432 0.260543,0.10138 0.544197,0.26898 0.652808,0.52659 0.472162,1.11992 0.894924,3.07923 1.165545,4.35047 0.564058,2.64967 2.381503,3.77991 4.032746,5.19217 -0.168994,-0.42431 -0.838186,-1.59016 -1.785469,-2.48526 -1.138948,-1.0762 -1.902044,-2.16975 -1.283412,-2.61273 0.251362,-0.17999 0.70553,-0.43628 1.982326,0.8944 0.487831,0.50842 1.071194,0.9126 1.811345,1.61768 0.57098,0.54392 1.291695,0.73436 1.871342,0.97981 0.961977,0.40734 1.743643,0.71631 2.3383,1.20703 0.99771,0.82332 1.69751,1.73769 2.165512,2.82919 0.34808,0.81182 0.410222,1.73408 0.413844,2.61737 0.0036,0.88628 -0.393694,2.62957 -0.393694,2.62957 -0.988323,-0.57206 -3.763213,-2.23635 -6.407378,-4.01365 -2.11915,-1.4244 -4.196794,-2.86196 -4.886318,-4.31207 -0.561689,-1.18127 -1.3572,-2.43205 -1.590669,-3.65796 -0.314187,-1.64976 -0.376568,-3.8599 -0.76715,-5.80582 z" /><path
           id="rect44"
           style="opacity:1;fill:#774a2b;fill-opacity:1;stroke:none;stroke-width:0.05997;stroke-linejoin:round;stroke-opacity:0.956863"
           transform="rotate(-12.22875)"
           d="m 42.321627,165.91315 c 1.150404,-0.3314 0.984311,2.43627 0.960981,3.14716 -0.05095,1.4081 -0.111333,2.59882 -0.111333,2.59882 0,0 -0.443415,-0.10501 -0.668532,-0.098 -0.20909,0.006 -0.614082,0.12941 -0.614082,0.12941 0,0 0.133439,-1.51932 0.07474,-3.02798 -0.04834,-1.24228 0.01671,-2.65102 0.358227,-2.7494 z" /><path
           id="path44"
           style="opacity:1;fill:#774a2b;fill-opacity:1;stroke:none;stroke-width:0.05997;stroke-linejoin:round;stroke-opacity:0.956863"
           d="m 80.343166,159.90845 c 0,0 -0.532109,-0.42004 -0.836416,-0.68183 -0.237161,-0.20403 -0.451246,-0.42251 -0.483484,-0.44013 -0.115363,-1.0132 -0.428539,-2.32122 -0.565407,-3.29825 -0.08035,-0.57357 -0.153701,-0.83723 0.02663,-1.10693 0.338028,-0.10191 0.734954,0.24781 0.874397,0.60446 0.205073,0.52452 0.665157,3.28361 0.984284,4.92268 z" /><path
           id="path45"
           style="opacity:1;fill:#774a2b;fill-opacity:1;stroke:none;stroke-width:0.0599698;stroke-linejoin:round;stroke-opacity:0.956863"
           d="m 82.009368,161.22027 c 0,0 -0.482637,-0.39569 -0.744336,-0.62083 -0.203954,-0.17546 -0.391007,-0.35784 -0.418731,-0.37299 -0.09921,-0.87134 -0.301171,-1.67095 -0.452467,-2.54054 -0.05906,-0.33942 -0.164062,-0.80503 -0.094,-1.17511 0.290698,-0.0876 0.632048,0.21311 0.751967,0.51982 0.176359,0.45108 0.680958,2.77716 0.955402,4.18673 z" /></g><g
         id="g53"
         transform="matrix(-1,0,0,1,178.20811,0)"
         style="stroke-width:0.5997"><g
           id="g52"
           style="stroke-width:0.5997"><path
             id="path49"
             style="opacity:1;fill:#774a2b;fill-opacity:1;stroke:none;stroke-width:0.05997;stroke-linejoin:round;stroke-opacity:0.956863"
             d="m 74.408519,154.19013 c 0,0 0.468559,-0.0392 0.680322,0.0432 0.260543,0.10138 0.544197,0.26898 0.652808,0.52659 0.472162,1.11992 0.894924,3.07923 1.165545,4.35047 0.564058,2.64967 2.381503,3.77991 4.032746,5.19217 -0.168994,-0.42431 -0.838186,-1.59016 -1.785469,-2.48526 -1.138948,-1.0762 -1.902044,-2.16975 -1.283412,-2.61273 0.251362,-0.17999 0.70553,-0.43628 1.982326,0.8944 0.487831,0.50842 1.071194,0.9126 1.811345,1.61768 0.57098,0.54392 1.291695,0.73436 1.871342,0.97981 0.961977,0.40734 1.743643,0.71631 2.3383,1.20703 0.99771,0.82332 1.69751,1.73769 2.165512,2.82919 0.34808,0.81182 0.410222,1.73408 0.413844,2.61737 0.0036,0.88628 -0.393694,2.62957 -0.393694,2.62957 -0.988323,-0.57206 -3.763213,-2.23635 -6.407378,-4.01365 -2.11915,-1.4244 -4.196794,-2.86196 -4.886318,-4.31207 -0.561689,-1.18127 -1.3572,-2.43205 -1.590669,-3.65796 -0.314187,-1.64976 -0.376568,-3.8599 -0.76715,-5.80582 z" /><path
             id="path50"
             style="opacity:1;fill:#774a2b;fill-opacity:1;stroke:none;stroke-width:0.05997;stroke-linejoin:round;stroke-opacity:0.956863"
             transform="rotate(-12.22875)"
             d="m 42.321627,165.91315 c 1.150404,-0.3314 0.984311,2.43627 0.960981,3.14716 -0.05095,1.4081 -0.111333,2.59882 -0.111333,2.59882 0,0 -0.443415,-0.10501 -0.668532,-0.098 -0.20909,0.006 -0.614082,0.12941 -0.614082,0.12941 0,0 0.133439,-1.51932 0.07474,-3.02798 -0.04834,-1.24228 0.01671,-2.65102 0.358227,-2.7494 z" /><path
             id="path51"
             style="opacity:1;fill:#774a2b;fill-opacity:1;stroke:none;stroke-width:0.05997;stroke-linejoin:round;stroke-opacity:0.956863"
             d="m 80.343166,159.90845 c 0,0 -0.532109,-0.42004 -0.836416,-0.68183 -0.237161,-0.20403 -0.451246,-0.42251 -0.483484,-0.44013 -0.115363,-1.0132 -0.428539,-2.32122 -0.565407,-3.29825 -0.08035,-0.57357 -0.153701,-0.83723 0.02663,-1.10693 0.338028,-0.10191 0.734954,0.24781 0.874397,0.60446 0.205073,0.52452 0.665157,3.28361 0.984284,4.92268 z" /><path
             id="path52"
             style="opacity:1;fill:#774a2b;fill-opacity:1;stroke:none;stroke-width:0.0599698;stroke-linejoin:round;stroke-opacity:0.956863"
             d="m 82.009368,161.22027 c 0,0 -0.482637,-0.39569 -0.744336,-0.62083 -0.203954,-0.17546 -0.391007,-0.35784 -0.418731,-0.37299 -0.09921,-0.87134 -0.301171,-1.67095 -0.452467,-2.54054 -0.05906,-0.33942 -0.164062,-0.80503 -0.094,-1.17511 0.290698,-0.0876 0.632048,0.21311 0.751967,0.51982 0.176359,0.45108 0.680958,2.77716 0.955402,4.18673 z" /></g></g></g><g
       id="g95"
       transform="matrix(1.2189955,0,0,1.2189955,5.1060158,134.59904)"
       style="fill:#ffffff;stroke-width:0.820348"><path
         id="path55"
         style="fill:#ffffff;fill-opacity:1;stroke:none;stroke-width:0.0820345;stroke-linejoin:round;stroke-opacity:1"
         d="m 121.82725,68.513514 c -2.33963,-2.333634 -1.81475,-3.460996 0,-5.778591 1.81376,2.479683 1.92893,3.350831 0,5.778591 z" /><path
         id="path56"
         style="fill:#ffffff;fill-opacity:1;stroke:none;stroke-width:0.0820345;stroke-linejoin:round;stroke-opacity:1"
         d="m 112.94928,69.781648 c -1.5407,-2.66734 -0.67473,-3.675089 1.82129,-5.62196 0.98305,2.720207 0.82053,3.587283 -1.82129,5.62196 z" /><path
         id="path57"
         style="fill:#ffffff;fill-opacity:1;stroke:none;stroke-width:0.0820345;stroke-linejoin:round;stroke-opacity:1"
         d="m 111.95294,70.386978 c -3.93526,-0.236496 -4.75005,-1.266969 -5.94218,-3.792648 3.7403,0.623454 4.7117,1.131459 5.94218,3.792648 z" /><path
         id="path58"
         style="fill:#ffffff;fill-opacity:1;stroke:none;stroke-width:0.0820345;stroke-linejoin:round;stroke-opacity:1"
         d="m 106.70588,75.107037 c -3.85955,0.611248 -5.04673,-0.201497 -7.186194,-2.364841 3.825974,-0.199434 4.956454,0.07998 7.186194,2.364841 z" /><path
         id="path59"
         style="fill:#ffffff;fill-opacity:1;stroke:none;stroke-width:0.0820345;stroke-linejoin:round;stroke-opacity:1"
         d="m 118.07104,66.002995 c -1.76006,-0.975348 -1.7357,-1.643259 -1.29685,-3.103778 1.51494,1.116297 1.77131,1.570516 1.29685,3.103778 z" /><path
         id="path60"
         style="fill:#ffffff;fill-opacity:1;stroke:none;stroke-width:0.0820345;stroke-linejoin:round;stroke-opacity:1"
         d="m 110.77467,66.686373 c -1.71515,-0.620014 -1.84367,-1.192983 -1.7967,-2.492424 1.53814,0.769887 1.85771,1.126603 1.7967,2.492424 z" /><path
         id="path61"
         style="fill:#ffffff;fill-opacity:1;stroke:none;stroke-width:0.0820345;stroke-linejoin:round;stroke-opacity:1"
         d="m 115.84848,71.00981 c -0.34522,-2.010568 0.49628,-2.577746 2.6744,-3.564098 -0.0427,1.972252 -0.37575,2.537675 -2.6744,3.564098 z" /><path
         id="path62"
         style="fill:#ffffff;fill-opacity:1;stroke:none;stroke-width:0.0820345;stroke-linejoin:round;stroke-opacity:1"
         d="m 109.46889,74.498919 c -2.29707,-1.125192 -2.33025,-1.963223 -1.91992,-3.816911 2.00357,1.315215 2.36791,1.870145 1.91992,3.816911 z" /><path
         id="path63"
         style="fill:#ffffff;fill-opacity:1;stroke:none;stroke-width:0.0820345;stroke-linejoin:round;stroke-opacity:1"
         d="m 105.83836,72.151348 c -2.77468,-0.698319 -3.11834,-1.551886 -3.38177,-3.536089 2.54346,0.9517 3.12263,1.448865 3.38177,3.536089 z" /><path
         id="path64"
         style="fill:#ffffff;fill-opacity:1;stroke:none;stroke-width:0.0820345;stroke-linejoin:round;stroke-opacity:1"
         d="m 102.92141,76.603285 c -1.72371,0.818247 -2.51317,0.588267 -4.116884,-0.162453 1.814034,-0.615479 2.437674,-0.634498 4.116884,0.162453 z" /><path
         id="path65"
         style="fill:#ffffff;fill-opacity:1;stroke:none;stroke-width:0.0820345;stroke-linejoin:round;stroke-opacity:1"
         d="m 112.49659,79.222714 c -1.19072,2.4979 -2.62055,2.789363 -5.93982,2.981705 1.61237,-2.282465 2.44835,-2.795656 5.93982,-2.981705 z" /><path
         id="path66"
         style="fill:#ffffff;fill-opacity:1;stroke:none;stroke-width:0.0820345;stroke-linejoin:round;stroke-opacity:1"
         d="m 107.69576,78.73846 c -1.28759,1.876355 -2.45584,1.998127 -5.10028,1.899662 1.59005,-1.675058 2.32093,-2.016042 5.10028,-1.899662 z" /><circle
         style="fill:#ffffff;fill-opacity:1;stroke:none;stroke-width:0.0820342;stroke-linejoin:round;stroke-opacity:1"
         id="circle66"
         cx="121.70753"
         cy="76.76236"
         r="2.5" /><path
         id="path67"
         style="fill:#ffffff;fill-opacity:1;stroke:none;stroke-width:0.0820345;stroke-linejoin:round"
         d="m 142.47023,78.33239 c 0,0 -2.55971,-0.200698 -6.45243,-1.146532 -1.90284,-0.462344 -5.2407,-1.531232 -6.5935,-2.012668 -2.68602,-0.955905 -7.46946,-3.62542 -7.46946,-3.62542 0,0 -4.97518,2.653378 -7.73949,3.611949 -1.44296,0.500369 -4.68475,1.596054 -6.7082,2.077705 -3.78221,0.900299 -6.34718,1.059375 -6.34718,1.059375 0,0 8.32801,-2.687354 12.46512,-4.548977 2.68828,-1.209671 8.18087,-4.24848 8.18087,-4.24848 0,0 5.30382,3.050914 8.11788,4.309624 4.03381,1.804295 12.54639,4.523424 12.54639,4.523424 z" /><path
         id="path68"
         style="fill:#ffffff;fill-opacity:1;stroke:none;stroke-width:0.0820345;stroke-linejoin:round"
         d="m 113.08689,70.156944 c 0,0 0.11021,0.969701 0.24991,1.443923 0.10093,0.342614 0.42276,1.00479 0.42276,1.00479 l -0.86718,0.400239 c 0,0 -0.14548,-0.726102 -0.13392,-1.091213 0.0187,-0.591234 0.32843,-1.757739 0.32843,-1.757739 z" /><path
         id="path69"
         style="fill:#ffffff;fill-opacity:1;stroke:none;stroke-width:0.0820345;stroke-linejoin:round"
         d="m 130.37103,70.312185 c 0,0 -0.11021,0.969701 -0.24991,1.443923 -0.10093,0.342615 -0.42277,1.00479 -0.42277,1.00479 l 0.86719,0.400238 c 0,0 0.14547,-0.726102 0.13392,-1.091212 -0.0187,-0.591234 -0.32843,-1.757739 -0.32843,-1.757739 z" /><g
         id="g92"
         style="fill:#ffffff;fill-opacity:1;stroke:none;stroke-width:0.957715"
         transform="matrix(1,0,0,0.73370454,27.813869,16.815834)"><path
           id="path70"
           style="fill:#ffffff;fill-opacity:1;stroke:none;stroke-width:0.0957715;stroke-linejoin:round;stroke-opacity:0.956863"
           d="m 94.013379,70.461169 c -2.33963,-3.180617 -1.81475,-4.717151 0,-7.875909 1.81376,3.379674 1.92893,4.567002 0,7.875909 z" /><path
           id="path71"
           style="fill:#ffffff;fill-opacity:1;stroke:none;stroke-width:0.0957715;stroke-linejoin:round;stroke-opacity:0.956863"
           d="m 85.135404,72.189568 c -1.540701,-3.635441 -0.674727,-5.008949 1.821292,-7.66243 0.983053,3.707496 0.820533,4.889274 -1.821292,7.66243 z" /><path
           id="path72"
           style="fill:#ffffff;fill-opacity:1;stroke:none;stroke-width:0.0957715;stroke-linejoin:round;stroke-opacity:0.956863"
           d="m 84.139068,73.014601 c -3.935263,-0.322332 -4.750048,-1.726811 -5.942184,-5.169177 3.740303,0.849735 4.711703,1.542119 5.942184,5.169177 z" /><path
           id="path73"
           style="fill:#ffffff;fill-opacity:1;stroke:none;stroke-width:0.0957715;stroke-linejoin:round;stroke-opacity:0.956863"
           d="m 78.892004,79.447788 c -3.859552,0.833098 -5.046723,-0.274629 -7.186184,-3.223151 3.825968,-0.271818 4.95645,0.109003 7.186184,3.223151 z" /><path
           id="path74"
           style="fill:#ffffff;fill-opacity:1;stroke:none;stroke-width:0.0957715;stroke-linejoin:round;stroke-opacity:0.956863"
           d="m 90.25717,67.039466 c -1.760058,-1.329346 -1.735703,-2.239674 -1.296856,-4.230283 1.514947,1.521454 1.771313,2.14053 1.296856,4.230283 z" /><path
           id="path75"
           style="fill:#ffffff;fill-opacity:1;stroke:none;stroke-width:0.0957715;stroke-linejoin:round;stroke-opacity:0.956863"
           d="m 82.960793,67.970874 c -1.715148,-0.845046 -1.843667,-1.625972 -1.796694,-3.39704 1.538134,1.049315 1.857706,1.5355 1.796694,3.39704 z" /><path
           id="path76"
           style="fill:#ffffff;fill-opacity:1;stroke:none;stroke-width:0.0957715;stroke-linejoin:round;stroke-opacity:0.956863"
           d="m 88.034605,73.863488 c -0.345217,-2.740297 0.496282,-3.51333 2.674398,-4.857676 -0.04272,2.688075 -0.375744,3.458716 -2.674398,4.857676 z" /><path
           id="path77"
           style="fill:#ffffff;fill-opacity:1;stroke:none;stroke-width:0.0957715;stroke-linejoin:round;stroke-opacity:0.956863"
           d="m 81.655016,78.618956 c -2.297073,-1.533577 -2.330247,-2.675768 -1.919915,-5.202245 2.003566,1.792568 2.367905,2.548907 1.919915,5.202245 z" /><path
           id="path78"
           style="fill:#ffffff;fill-opacity:1;stroke:none;stroke-width:0.0957715;stroke-linejoin:round;stroke-opacity:0.956863"
           d="m 78.024486,75.419342 c -2.774676,-0.951771 -3.118343,-2.115137 -3.381769,-4.8195 2.543459,1.297117 3.122629,1.974726 3.381769,4.8195 z" /><path
           id="path79"
           style="fill:#ffffff;fill-opacity:1;stroke:none;stroke-width:0.0957715;stroke-linejoin:round;stroke-opacity:0.956863"
           d="m 75.107541,81.487094 c -1.723716,1.115227 -2.513171,0.801777 -4.116879,-0.221415 1.814021,-0.838865 2.437669,-0.864786 4.116879,0.221415 z" /><path
           id="path80"
           style="fill:#ffffff;fill-opacity:1;stroke:none;stroke-width:0.0957715;stroke-linejoin:round;stroke-opacity:0.956863"
           d="m 84.682713,85.057236 c -1.19072,3.404504 -2.620547,3.801752 -5.939817,4.063904 1.612367,-3.110877 2.448355,-3.81033 5.939817,-4.063904 z" /><path
           id="path81"
           style="fill:#ffffff;fill-opacity:1;stroke:none;stroke-width:0.0957715;stroke-linejoin:round;stroke-opacity:0.956863"
           d="m 79.88189,84.397223 c -1.287595,2.557372 -2.45584,2.72334 -5.100279,2.589138 1.590045,-2.283014 2.320927,-2.747757 5.100279,-2.589138 z" /><path
           id="path82"
           style="fill:#ffffff;fill-opacity:1;stroke:none;stroke-width:0.0957715;stroke-linejoin:round;stroke-opacity:0.956863"
           d="m 102.86193,72.204671 c 1.5407,-3.635441 0.67473,-5.008949 -1.82129,-7.66243 -0.98306,3.707496 -0.82053,4.889274 1.82129,7.66243 z" /><path
           id="path83"
           style="fill:#ffffff;fill-opacity:1;stroke:none;stroke-width:0.0957715;stroke-linejoin:round;stroke-opacity:0.956863"
           d="m 103.85827,73.029704 c 3.93526,-0.322332 4.75005,-1.726811 5.94218,-5.169177 -3.7403,0.849735 -4.7117,1.542119 -5.94218,5.169177 z" /><path
           id="path84"
           style="opacity:1;fill:#ffffff;fill-opacity:1;stroke:none;stroke-width:0.0957715;stroke-linejoin:round;stroke-opacity:0.956863"
           d="m 109.10533,79.462891 c 3.85955,0.833098 5.04672,-0.274629 7.18619,-3.223151 -3.82597,-0.271818 -4.95645,0.109003 -7.18619,3.223151 z" /><path
           id="path85"
           style="fill:#ffffff;fill-opacity:1;stroke:none;stroke-width:0.0957715;stroke-linejoin:round;stroke-opacity:0.956863"
           d="m 97.740162,67.054569 c 1.760058,-1.329346 1.735703,-2.239674 1.296856,-4.230283 -1.514947,1.521454 -1.771313,2.14053 -1.296856,4.230283 z" /><path
           id="path86"
           style="fill:#ffffff;fill-opacity:1;stroke:none;stroke-width:0.0957715;stroke-linejoin:round;stroke-opacity:0.956863"
           d="m 105.03654,67.985977 c 1.71515,-0.845046 1.84367,-1.625972 1.7967,-3.39704 -1.53814,1.049315 -1.85771,1.5355 -1.7967,3.39704 z" /><path
           id="path87"
           style="fill:#ffffff;fill-opacity:1;stroke:none;stroke-width:0.0957715;stroke-linejoin:round;stroke-opacity:0.956863"
           d="m 99.962727,73.878591 c 0.345223,-2.740297 -0.496282,-3.51333 -2.674398,-4.857676 0.04272,2.688075 0.375744,3.458716 2.674398,4.857676 z" /><path
           id="path88"
           style="fill:#ffffff;fill-opacity:1;stroke:none;stroke-width:0.0957715;stroke-linejoin:round;stroke-opacity:0.956863"
           d="m 106.34232,78.634059 c 2.29707,-1.533577 2.33025,-2.675768 1.91991,-5.202245 -2.00356,1.792568 -2.3679,2.548907 -1.91991,5.202245 z" /><path
           id="path89"
           style="fill:#ffffff;fill-opacity:1;stroke:none;stroke-width:0.0957715;stroke-linejoin:round;stroke-opacity:0.956863"
           d="m 109.97285,75.434445 c 2.77468,-0.951771 3.11834,-2.115137 3.38177,-4.8195 -2.54346,1.297117 -3.12263,1.974726 -3.38177,4.8195 z" /><path
           id="path90"
           style="fill:#ffffff;fill-opacity:1;stroke:none;stroke-width:0.0957715;stroke-linejoin:round;stroke-opacity:0.956863"
           d="m 112.88979,81.502197 c 1.72372,1.115227 2.51318,0.801777 4.11688,-0.221415 -1.81402,-0.838865 -2.43767,-0.864786 -4.11688,0.221415 z" /><path
           id="path91"
           style="fill:#ffffff;fill-opacity:1;stroke:none;stroke-width:0.0957715;stroke-linejoin:round;stroke-opacity:0.956863"
           d="m 103.31462,85.072339 c 1.19072,3.404504 2.62055,3.801752 5.93982,4.063904 -1.61237,-3.110877 -2.44836,-3.81033 -5.93982,-4.063904 z" /><path
           id="path92"
           style="fill:#ffffff;fill-opacity:1;stroke:none;stroke-width:0.0957715;stroke-linejoin:round;stroke-opacity:0.956863"
           d="m 108.11545,84.412326 c 1.28759,2.557372 2.45584,2.72334 5.10027,2.589138 -1.59004,-2.283014 -2.32092,-2.747757 -5.10027,-2.589138 z" /></g><path
         id="path93"
         style="fill:#ffffff;fill-opacity:1;stroke:none;stroke-width:0.0820345;stroke-linejoin:round"
         d="m 109.49412,76.738426 0.77869,-0.220015 c 0,0 2.21094,0.973343 3.38703,1.35484 0.72926,0.236554 2.26033,0.574351 2.26033,0.574351 0,0 -0.82531,-0.941862 -1.15548,-1.445043 -0.34501,-0.525782 -0.8557,-1.634168 -0.8557,-1.634168 l 0.76588,-0.291511 c 0,0 1.91474,2.212243 3.10651,3.17974 1.04028,0.844521 3.49028,2.259253 3.49028,2.259253 l -1.90879,2.802902 c 0,0 -1.38699,-1.649933 -2.31524,-2.327025 -0.58214,-0.424636 -1.34147,-0.694762 -1.9975,-1.056792 -1.88087,-1.037938 -5.55601,-3.196532 -5.55601,-3.196532 z" /><path
         id="path94"
         style="fill:#ffffff;fill-opacity:1;stroke:none;stroke-width:0.0820345;stroke-linejoin:round"
         d="m 128.74707,75.001782 1.10462,0.425743 -2.49992,3.143189 c 0,0 2.24401,-0.486321 3.29321,-0.857557 0.92922,-0.328788 2.62602,-1.201669 2.62602,-1.201669 l 0.93979,0.269257 c 0,0 -1.82882,1.062343 -2.81013,1.522086 -1.40633,0.658871 -3.06527,1.019871 -4.39146,1.762839 -0.75898,0.425209 -1.46526,0.927024 -1.98849,1.513138 -0.41241,0.461925 -0.66615,0.997769 -0.86379,1.530595 -0.26757,0.721321 -0.20152,1.49142 -0.42311,2.221087 -0.23862,0.785785 -0.5612,1.56093 -0.9715,2.30758 -0.4985,0.90716 -1.80023,2.620268 -1.80023,2.620268 0,0 -4.37848,0.09636 -6.54934,0.291661 -1.33979,0.120529 -2.66303,0.329764 -3.98154,0.541824 -1.77065,0.284779 -5.27141,0.980159 -5.27141,0.980159 0,0 2.61811,-0.972439 3.9757,-1.377564 1.29763,-0.387233 2.61678,-0.74845 3.97394,-1.003169 0.94279,-0.176948 1.9104,-0.282556 2.8776,-0.361332 0.8511,-0.06932 2.56558,-0.09723 2.56558,-0.09723 0,0 0.31933,-3.016089 0.79249,-4.482097 0.28188,-0.873403 0.6291,-1.752218 1.21014,-2.542066 0.59611,-0.810339 1.45527,-1.505184 2.29012,-2.192749 1.1783,-0.970425 2.68535,-1.71271 3.81822,-2.711831 0.80294,-0.708141 2.08349,-2.302158 2.08349,-2.302158 z" /><path
         id="path95"
         style="fill:#ffffff;fill-opacity:1;stroke:none;stroke-width:0.0820345;stroke-linejoin:round"
         d="m 124.1879,86.086747 0.84998,2.974236 c 0,0 3.33808,0.209777 4.96791,0.477253 1.29378,0.212326 2.5578,0.526956 3.78777,0.889962 1.65638,0.488867 4.81122,1.726949 4.81122,1.726949 0,0 -4.67348,-1.006202 -7.06378,-1.331409 -1.53166,-0.208394 -3.08918,-0.306212 -4.64233,-0.394308 -1.68444,-0.09553 -5.06454,-0.14517 -5.06454,-0.14517 0,0 1.04511,-1.343314 1.44372,-2.056924 0.38633,-0.691606 0.91005,-2.140589 0.91005,-2.140589 z" /></g></g></svg>
