<?xml version="1.0" standalone="no"?>
<!DOCTYPE svg PUBLIC "-//W3C//DTD SVG 20010904//EN"
 "http://www.w3.org/TR/2001/REC-SVG-20010904/DTD/svg10.dtd">
<svg version="1.0" xmlns="http://www.w3.org/2000/svg"
 width="1709.000000pt" height="1680.000000pt" viewBox="0 0 1709.000000 1680.000000"
 preserveAspectRatio="xMidYMid meet">

<g transform="translate(0.000000,1680.000000) scale(0.100000,-0.100000)"
fill="#000000" stroke="none">
<path d="M0 8400 l0 -8400 8545 0 8545 0 0 8400 0 8400 -8545 0 -8545 0 0
-8400z m8510 8370 c0 -6 43 -71 95 -145 52 -73 95 -136 95 -139 0 -3 15 -27
33 -53 44 -65 61 -95 124 -218 6 -11 17 -33 26 -50 49 -96 100 -305 100 -410
0 -95 -31 -251 -55 -280 -4 -5 -8 -17 -8 -27 0 -10 -4 -26 -10 -36 -5 -9 -22
-44 -38 -77 -40 -83 -149 -268 -183 -309 -5 -6 -37 -49 -71 -96 -35 -47 -65
-87 -68 -90 -3 -3 -16 -20 -29 -37 -12 -18 -27 -33 -32 -33 -5 0 -22 13 -37
29 -15 15 -57 59 -93 97 -36 38 -96 107 -132 154 -37 47 -71 90 -76 96 -50 61
-146 241 -171 319 -7 22 -17 51 -22 64 -14 38 -21 249 -9 316 15 88 21 117 33
145 5 14 16 39 22 55 28 69 93 195 139 270 44 71 212 312 226 325 4 3 29 35
56 72 45 60 85 87 85 58z m-1675 -118 c251 -196 335 -290 405 -457 39 -93 21
-376 -31 -477 -5 -10 -9 -29 -9 -43 0 -14 -6 -28 -14 -31 -13 -5 -77 26 -107
52 -8 8 -19 14 -24 14 -4 0 -23 11 -41 25 -18 14 -37 25 -43 25 -6 0 -11 3
-11 8 0 4 -17 18 -38 32 -124 83 -227 216 -270 351 -15 45 -15 234 -1 296 17
73 40 165 49 193 5 14 11 38 15 53 8 38 29 30 120 -41z m3401 50 c6 -4 13 -18
16 -32 3 -14 15 -61 26 -105 45 -177 55 -318 31 -409 -25 -91 -87 -196 -159
-265 -124 -119 -380 -277 -380 -235 0 3 -11 47 -24 97 -69 260 -51 425 64 592
34 50 186 197 260 252 30 22 75 57 100 77 49 39 50 39 66 28z m-4189 -434 c6
-7 13 -24 16 -38 5 -24 42 -135 58 -175 23 -58 68 -235 98 -383 17 -82 14
-319 -5 -394 -25 -105 -67 -202 -122 -284 -15 -23 -40 -61 -56 -85 -76 -115
-584 -579 -633 -579 -12 0 -41 50 -104 180 -22 47 -45 94 -51 104 -12 23 -58
143 -65 171 -2 11 -8 29 -13 40 -10 23 -16 58 -31 165 -11 82 -3 289 12 305 5
5 9 19 9 32 0 13 4 31 9 41 5 9 23 46 40 82 42 85 63 120 110 183 42 57 150
180 187 213 13 11 52 47 87 80 116 109 415 353 433 354 6 0 16 -6 21 -12z
m-1981 -7 c5 -4 43 -26 84 -48 93 -50 143 -78 178 -100 47 -30 156 -119 188
-154 37 -41 94 -134 94 -154 0 -7 4 -16 9 -19 5 -3 11 -23 14 -43 3 -21 10
-69 17 -107 13 -72 11 -219 -3 -232 -4 -5 -17 -3 -27 4 -11 7 -27 12 -35 12
-8 0 -23 4 -33 10 -9 5 -60 30 -112 54 -52 25 -110 54 -128 65 -58 33 -150
110 -174 144 -12 18 -25 34 -28 37 -14 11 -47 84 -73 160 -17 51 -28 215 -20
313 5 54 9 67 22 67 10 0 21 -4 27 -9z m6896 1 c2 -4 35 -32 73 -62 350 -274
576 -503 693 -704 126 -216 135 -489 25 -781 -25 -68 -80 -192 -109 -247 -56
-105 -70 -128 -81 -133 -8 -2 -59 32 -116 77 -382 304 -594 550 -671 778 -23
68 -46 214 -46 289 1 98 56 402 90 486 4 11 24 74 45 140 21 66 44 130 52 143
13 21 38 30 45 14z m1987 -101 c-1 -156 -22 -286 -59 -366 -55 -118 -164 -213
-350 -302 -181 -87 -216 -99 -224 -76 -11 28 -6 188 8 263 27 136 56 195 143
286 81 86 157 137 363 246 41 22 79 44 85 49 20 20 35 -24 34 -100z m-9819
-741 c102 -14 179 -28 255 -45 39 -9 90 -19 115 -22 25 -3 49 -9 54 -14 6 -5
23 -9 38 -9 16 0 45 -7 65 -15 19 -8 48 -15 64 -15 15 0 31 -4 34 -10 3 -5 19
-10 34 -10 16 0 42 -7 57 -15 16 -8 37 -15 47 -15 9 0 25 -4 35 -9 9 -5 42
-17 72 -26 30 -10 59 -22 65 -26 5 -5 16 -9 24 -9 15 0 183 -82 250 -121 51
-31 179 -127 229 -173 50 -46 172 -189 190 -223 7 -12 18 -27 24 -35 18 -18
68 -96 68 -104 0 -4 6 -15 14 -23 23 -28 120 -210 174 -331 20 -44 20 -45 1
-54 -13 -6 -69 -3 -157 7 -75 10 -159 19 -187 22 -159 17 -321 42 -344 55 -11
5 -35 10 -55 10 -19 0 -38 5 -41 10 -3 6 -19 10 -35 10 -16 0 -44 6 -62 14
-18 8 -53 20 -78 26 -25 7 -58 18 -75 25 -16 7 -41 17 -55 23 -57 22 -190 92
-260 137 -84 54 -287 252 -340 330 -19 28 -36 52 -40 55 -33 28 -238 396 -299
539 -25 60 -18 77 28 59 14 -5 55 -14 91 -18z m10830 -9 c0 -19 -139 -298
-200 -401 -122 -206 -252 -366 -390 -481 -51 -42 -73 -58 -139 -101 -62 -40
-293 -148 -317 -148 -8 0 -22 -4 -32 -9 -24 -12 -89 -33 -137 -43 -262 -58
-303 -65 -565 -92 -85 -8 -172 -18 -192 -22 -49 -8 -79 2 -71 24 7 22 122 254
133 267 4 6 22 37 40 70 64 118 188 281 290 385 131 131 352 267 543 332 34
11 66 24 72 29 5 5 17 9 27 9 10 0 47 10 81 21 34 12 78 25 97 29 19 5 62 16
95 25 33 9 83 21 110 26 28 5 70 13 95 19 83 19 194 40 260 50 36 6 83 14 105
19 71 15 95 13 95 -8z m-6614 -296 c3 -14 1 -78 -6 -143 -23 -228 -37 -314
-60 -367 -13 -31 -24 -59 -34 -85 -34 -91 -180 -261 -282 -326 -16 -10 -37
-26 -46 -34 -9 -8 -34 -24 -55 -35 -21 -11 -60 -33 -88 -50 -74 -45 -343 -175
-363 -175 -12 0 -42 203 -42 280 0 65 30 233 43 246 4 4 7 15 7 24 0 21 23 67
68 140 75 119 264 271 473 378 52 27 103 54 114 60 11 6 36 17 55 25 19 9 69
31 110 51 41 20 81 36 87 36 7 0 15 -11 19 -25z m2340 1 c16 -8 90 -44 164
-80 278 -135 429 -232 538 -346 153 -159 218 -373 191 -630 -14 -145 -16 -150
-40 -150 -33 0 -321 145 -454 229 -171 107 -299 237 -356 362 -62 133 -109
384 -109 572 0 64 10 70 66 43z m-7895 -387 c34 -11 58 -20 114 -44 17 -7 46
-18 65 -25 19 -7 53 -21 75 -30 22 -10 58 -26 80 -35 94 -40 305 -149 305
-156 0 -5 5 -9 11 -9 19 0 133 -87 198 -152 35 -34 82 -90 103 -123 42 -64 98
-178 98 -199 0 -7 3 -16 7 -20 14 -14 48 -148 62 -246 5 -30 13 -79 20 -109 6
-29 8 -57 5 -62 -7 -12 -71 -11 -79 1 -3 6 -17 10 -31 10 -29 0 -124 29 -138
41 -6 5 -20 9 -33 9 -13 0 -31 4 -41 9 -41 21 -94 41 -106 41 -8 0 -31 9 -53
19 -21 11 -60 30 -88 43 -58 28 -125 65 -185 103 -56 35 -209 191 -237 241
-44 78 -95 195 -108 244 -3 14 -13 50 -21 80 -17 59 -30 127 -44 230 -5 36
-12 84 -16 108 -4 23 -4 42 -2 42 3 0 20 -5 39 -11z m13413 -51 c-5 -40 -12
-83 -34 -213 -5 -27 -16 -75 -24 -105 -9 -30 -19 -70 -22 -88 -4 -18 -11 -35
-15 -38 -5 -3 -9 -12 -9 -20 0 -27 -78 -175 -122 -231 -102 -133 -287 -262
-493 -343 -11 -4 -33 -13 -50 -20 -33 -13 -39 -15 -165 -55 -176 -55 -240 -67
-240 -45 0 22 33 201 51 280 70 293 203 480 454 632 89 55 360 188 381 188 3
0 20 6 37 14 133 57 206 85 230 85 26 1 27 0 21 -41z m-6674 -273 c22 -14 42
-25 46 -25 3 0 18 -8 32 -19 15 -10 54 -33 87 -51 33 -18 74 -41 90 -50 17 -9
57 -32 90 -50 59 -33 89 -49 163 -91 20 -12 71 -40 112 -62 41 -22 92 -51 112
-64 21 -13 39 -23 42 -23 2 0 55 -29 117 -63 63 -35 155 -86 204 -112 50 -26
95 -51 100 -55 6 -4 55 -31 110 -60 55 -29 105 -56 110 -60 6 -4 66 -37 135
-73 69 -35 175 -91 235 -123 315 -166 842 -425 1016 -500 42 -18 103 -44 135
-59 85 -39 111 -49 189 -80 39 -15 94 -38 123 -51 29 -13 58 -24 65 -24 7 0
17 -4 22 -8 6 -5 26 -15 45 -22 19 -7 49 -19 65 -25 17 -7 46 -18 65 -25 19
-7 49 -18 65 -25 108 -44 403 -156 555 -210 41 -15 116 -42 165 -60 50 -18
124 -45 165 -60 41 -15 84 -30 95 -35 11 -5 43 -16 70 -25 28 -10 59 -21 70
-25 11 -5 53 -20 93 -34 39 -14 102 -37 140 -51 37 -14 74 -25 83 -25 9 0 18
-3 22 -6 6 -6 124 -49 272 -99 39 -13 169 -58 290 -100 212 -73 1180 -396
1355 -452 47 -15 90 -32 95 -39 6 -6 19 -14 30 -17 49 -13 -336 28 -403 43
-23 6 -59 10 -80 10 -20 0 -56 5 -79 10 -40 9 -78 16 -238 40 -33 5 -100 16
-150 26 -49 9 -110 20 -135 24 -83 15 -225 42 -265 50 -22 5 -53 12 -70 15
-16 3 -59 12 -95 20 -36 7 -92 19 -125 25 -103 21 -443 99 -610 142 -66 16
-136 34 -155 38 -37 9 -68 18 -160 43 -30 9 -80 23 -110 31 -30 8 -77 22 -105
30 -27 9 -63 16 -80 16 l-30 -1 35 -15 35 -15 -24 -18 c-22 -17 -321 -188
-451 -259 -347 -187 -501 -263 -690 -339 -47 -19 -94 -38 -105 -43 -11 -4 -54
-20 -95 -35 -41 -15 -84 -30 -95 -35 -11 -5 -45 -16 -75 -26 -30 -10 -59 -22
-64 -26 -6 -4 -19 -8 -31 -8 -12 0 -25 -4 -31 -9 -5 -4 -34 -16 -64 -25 -30
-9 -64 -21 -75 -25 -11 -5 -42 -16 -70 -26 -27 -9 -59 -20 -70 -25 -11 -4 -48
-20 -83 -34 -35 -14 -67 -26 -72 -26 -10 0 -64 -24 -240 -107 -195 -92 -438
-244 -645 -405 -80 -62 -247 -244 -307 -334 -63 -95 -168 -298 -168 -326 0 -8
-4 -18 -9 -23 -12 -14 -56 -159 -69 -230 -11 -55 -19 -111 -52 -360 -11 -78
-22 -130 -60 -270 -9 -33 -48 -148 -61 -180 -5 -11 -22 -55 -38 -97 -82 -210
-189 -425 -307 -620 -46 -75 -186 -282 -212 -314 -5 -6 -22 -30 -37 -55 -16
-24 -34 -50 -42 -57 -7 -7 -13 -16 -13 -20 0 -4 -14 -23 -30 -42 -16 -19 -30
-38 -30 -42 0 -4 -6 -13 -13 -20 -7 -7 -40 -51 -74 -98 -101 -141 -63 -126
-333 -134 -210 -6 -515 -17 -1235 -46 -420 -17 -757 -42 -1130 -85 -201 -24
-248 -30 -555 -75 -36 -5 -81 -12 -100 -14 -31 -4 -121 -19 -355 -57 -38 -6
-106 -17 -150 -25 -77 -14 -127 -22 -252 -44 -101 -17 -237 -41 -283 -50 -69
-14 -209 -40 -270 -51 -30 -6 -75 -14 -100 -19 -25 -5 -74 -15 -110 -21 -36
-6 -83 -14 -105 -19 -194 -39 -277 -55 -360 -69 -33 -6 -75 -15 -93 -20 -19
-6 -43 -6 -55 -1 -21 8 -21 8 -2 15 41 14 101 37 117 46 10 5 26 9 36 9 10 0
22 4 27 8 6 5 33 17 60 26 79 28 188 68 210 76 11 5 29 11 40 13 11 3 54 17
95 32 204 74 298 107 325 115 17 4 93 29 170 55 77 25 203 65 280 87 77 22
178 51 225 65 47 13 117 33 155 43 39 10 97 26 130 35 33 9 76 20 95 25 19 4
64 15 100 25 36 9 81 20 100 24 19 5 78 18 130 30 52 12 115 26 140 31 25 5
77 15 115 23 169 36 388 72 585 97 354 43 293 39 1265 88 l150 7 8 65 c18 151
51 392 67 500 7 41 16 102 20 135 13 87 27 169 45 265 9 47 20 105 24 130 8
41 31 143 52 230 4 19 12 55 18 80 12 54 78 258 91 282 6 10 10 25 10 33 0 8
4 23 9 33 5 9 17 37 26 62 10 25 26 64 37 88 10 24 26 61 35 84 57 142 213
397 324 531 121 143 290 309 489 477 36 30 67 57 70 60 7 7 298 240 335 267
35 27 435 296 450 303 5 3 83 55 173 115 90 61 171 115 180 120 51 31 239 177
332 256 102 88 326 314 394 399 16 19 52 62 81 95 49 56 131 152 233 274 27
31 52 51 65 51 20 1 -9 17 -88 50 -60 25 -98 41 -127 54 -18 8 -55 24 -83 36
-27 11 -72 32 -100 45 -27 12 -77 35 -110 50 -259 115 -1287 632 -1544 777
-20 12 -67 37 -106 58 -121 65 -170 92 -179 101 -15 14 -74 11 -99 -5 -55 -36
-1187 -606 -1372 -691 -27 -12 -72 -33 -100 -45 -27 -13 -77 -35 -110 -50
-321 -148 -413 -190 -420 -190 -2 0 -30 -12 -62 -26 -32 -14 -67 -30 -78 -34
-34 -15 -99 -42 -120 -51 -11 -4 -67 -26 -125 -49 -58 -23 -113 -45 -122 -51
-10 -5 -24 -9 -32 -9 -7 0 -27 -7 -42 -15 -16 -8 -37 -15 -46 -15 -9 0 -19 -4
-22 -9 -3 -5 -18 -11 -33 -14 -25 -4 -124 -36 -178 -58 -33 -13 -512 -171
-770 -254 -132 -42 -249 -80 -260 -84 -49 -19 -124 -41 -141 -42 -11 -1 -1 -5
21 -9 22 -5 65 -19 95 -33 30 -14 96 -42 145 -62 50 -21 108 -46 130 -56 22
-10 114 -47 205 -84 91 -36 175 -70 188 -75 12 -6 32 -14 45 -19 44 -17 112
-44 132 -51 11 -4 37 -15 58 -24 21 -9 46 -16 55 -16 10 0 22 -4 28 -8 12 -12
296 -99 364 -112 19 -4 87 -21 150 -37 63 -17 142 -36 175 -43 33 -7 82 -18
110 -26 27 -7 53 -10 57 -6 4 4 -9 25 -29 47 -20 22 -52 60 -72 85 -20 25 -39
47 -42 50 -42 36 -247 319 -302 420 -84 151 -219 431 -214 444 3 7 38 26 79
42 40 15 77 31 83 36 5 4 19 8 31 8 13 0 26 5 29 10 15 25 47 4 115 -72 40
-46 93 -106 119 -133 25 -28 93 -102 150 -165 143 -157 546 -559 656 -654 109
-95 454 -342 587 -421 9 -5 71 -45 138 -87 67 -43 123 -78 126 -78 3 0 17 -8
32 -19 69 -47 275 -172 355 -214 21 -11 41 -26 44 -33 4 -11 -32 -78 -59 -108
-11 -13 -288 -420 -416 -611 -48 -71 -89 -132 -93 -135 -4 -3 -21 -28 -38 -57
-17 -28 -38 -54 -46 -57 -9 -3 -30 14 -57 46 -53 63 -33 40 -231 255 -143 155
-336 344 -428 418 -143 116 -204 153 -423 262 -353 175 -482 241 -511 263 -5
4 -26 17 -45 27 -198 110 -232 129 -360 203 -69 40 -185 106 -258 149 -74 42
-146 83 -160 92 -15 9 -54 31 -87 49 -33 18 -93 53 -133 77 -41 24 -78 43 -83
43 -5 0 -9 5 -9 10 0 6 -4 10 -10 10 -5 0 -39 18 -75 40 -36 22 -70 40 -75 40
-6 0 -10 4 -10 9 0 5 -8 11 -17 14 -10 4 -36 17 -58 29 -79 46 -191 112 -250
147 -33 20 -77 45 -97 56 -20 10 -39 27 -41 36 -5 17 -9 17 -68 -2 -70 -22
-116 -36 -169 -49 -37 -10 -176 -48 -275 -76 -33 -9 -76 -20 -95 -25 -156 -37
-262 -61 -300 -68 -25 -5 -76 -17 -115 -26 -38 -9 -88 -21 -110 -25 -22 -4
-98 -20 -170 -35 -71 -15 -152 -31 -180 -35 -27 -5 -88 -16 -135 -25 -47 -9
-112 -21 -145 -26 -33 -5 -98 -16 -145 -24 -47 -9 -103 -18 -125 -21 -22 -2
-62 -9 -90 -14 -27 -5 -106 -16 -175 -25 -69 -9 -154 -20 -190 -25 -128 -18
-309 -33 -359 -31 -43 2 -11 16 159 70 91 29 174 57 185 61 11 5 45 16 75 26
30 9 64 20 75 25 11 4 45 15 75 25 30 9 64 21 75 25 11 5 76 27 145 49 69 22
134 44 145 49 11 5 29 11 40 14 23 6 140 45 170 58 11 5 61 22 110 38 50 16
169 57 265 91 96 34 191 66 210 72 19 5 39 14 45 19 5 5 17 9 27 9 10 0 26 4
36 9 9 5 40 17 67 26 28 9 59 20 70 25 11 5 43 16 70 25 28 9 58 21 67 26 10
5 27 9 37 9 11 0 23 5 26 10 3 6 14 10 23 10 9 0 30 7 46 15 15 8 36 15 45 15
10 0 21 3 25 7 7 7 45 22 136 52 30 11 69 24 85 31 54 23 69 28 145 55 41 15
84 30 95 35 11 5 54 20 95 35 41 14 102 37 135 50 33 12 87 33 120 45 33 13
74 28 90 35 17 7 46 18 65 25 19 7 49 19 65 25 17 7 46 18 65 25 31 12 58 22
125 50 11 5 133 55 270 111 296 121 317 130 510 219 61 28 141 65 179 83 95
44 783 389 936 469 69 36 168 88 220 115 267 140 340 178 390 206 63 35 118
64 245 132 50 26 104 55 120 65 17 10 73 40 125 67 52 28 115 62 140 75 25 14
76 42 113 62 37 20 84 46 105 58 20 11 71 38 112 60 41 22 79 44 85 49 15 14
33 11 75 -16z m-3076 -252 c5 -18 16 -81 37 -213 26 -162 59 -286 103 -385 8
-16 30 -67 50 -113 21 -45 34 -87 30 -93 -3 -6 -54 -33 -113 -60 -58 -27 -119
-56 -136 -64 -40 -19 -50 -5 -64 88 -7 40 -16 96 -21 126 -6 30 -10 87 -10
127 0 63 8 121 50 354 5 25 16 77 25 115 10 39 20 85 22 103 6 35 19 42 27 15z
m6015 -57 c7 -8 16 -36 21 -63 5 -26 16 -82 25 -123 50 -223 62 -357 46 -514
-26 -257 -22 -249 -98 -215 -137 61 -231 108 -236 115 -2 5 7 34 20 64 45 97
70 154 82 190 7 19 17 44 22 55 26 62 76 311 86 437 6 69 12 79 32 54z m-7773
-187 c88 -61 161 -114 164 -118 3 -3 22 -18 42 -34 57 -42 189 -177 229 -232
93 -131 139 -302 125 -468 -6 -76 -11 -115 -34 -267 -10 -71 -28 -104 -50 -95
-9 4 -25 10 -34 12 -10 3 -18 9 -18 14 0 5 -8 9 -19 9 -10 0 -24 7 -31 15 -7
8 -17 15 -22 15 -14 0 -205 118 -269 167 -86 65 -181 162 -221 224 -41 65 -68
118 -68 134 0 7 -7 26 -15 41 -8 16 -15 39 -15 51 0 13 -5 54 -12 92 -12 69
-6 145 23 301 6 30 14 80 19 110 17 107 26 140 39 140 5 0 80 -50 167 -111z
m9757 59 c3 -18 12 -69 22 -113 40 -197 43 -435 6 -545 -59 -177 -194 -326
-420 -467 -99 -62 -267 -153 -281 -153 -11 0 -25 46 -46 155 -26 129 -25 398
1 475 57 168 178 318 385 474 30 22 64 49 74 58 11 10 28 20 38 24 10 3 18 10
18 15 0 5 4 9 10 9 5 0 40 22 78 48 99 71 107 72 115 20z m-11688 -660 c28 -5
79 -14 115 -19 137 -18 244 -41 282 -60 10 -5 27 -9 37 -9 11 0 23 -4 26 -10
3 -5 13 -10 22 -10 8 0 30 -7 49 -15 19 -8 51 -22 72 -31 59 -26 102 -48 172
-88 66 -38 211 -134 220 -146 3 -3 27 -22 53 -42 68 -51 194 -165 317 -285 82
-81 102 -105 92 -115 -16 -16 -146 -34 -437 -58 -364 -31 -810 7 -957 81 -10
5 -24 9 -33 9 -28 0 -310 135 -335 160 -3 3 -25 18 -50 34 -143 91 -325 244
-528 441 -124 120 -150 151 -137 163 20 20 925 20 1020 0z m14413 -4 c17 -3
32 -12 32 -18 0 -11 -200 -212 -315 -317 -53 -47 -232 -193 -275 -222 -132
-91 -310 -188 -405 -221 -27 -10 -59 -21 -70 -25 -66 -26 -151 -47 -253 -61
-35 -5 -66 -11 -70 -14 -4 -2 -79 -9 -167 -16 -230 -17 -525 2 -877 55 -21 3
-38 10 -38 15 0 8 109 120 216 221 78 73 225 194 305 251 66 47 265 168 277
168 4 0 29 11 57 24 88 43 239 92 355 116 120 25 149 29 265 40 66 7 127 13
135 15 25 6 792 -4 828 -11z m-7573 -543 c84 -16 132 -30 191 -57 255 -117
430 -328 500 -604 22 -89 22 -302 0 -390 -76 -299 -273 -521 -551 -622 -113
-41 -172 -51 -300 -51 -128 0 -187 10 -300 51 -164 60 -300 162 -405 306 -46
63 -110 181 -110 203 0 7 -4 21 -9 31 -46 86 -58 348 -23 482 41 153 84 237
192 368 37 45 153 144 205 174 188 110 400 147 610 109z m-7198 -602 c34 -8
65 -17 69 -21 4 -5 20 -8 36 -8 15 0 36 -4 46 -9 41 -21 94 -41 106 -41 8 0
36 -11 63 -24 84 -41 163 -76 174 -76 15 0 7 -31 -11 -41 -40 -20 -132 -59
-140 -59 -6 0 -18 -4 -28 -9 -27 -14 -94 -38 -137 -49 -22 -6 -58 -15 -80 -21
-22 -6 -86 -15 -143 -22 -105 -12 -240 -3 -337 22 -54 14 -206 61 -225 70 -16
7 -42 18 -100 42 -193 80 -238 108 -188 120 13 3 39 11 58 17 19 7 44 16 55
20 71 26 123 40 142 40 12 0 25 5 28 10 3 6 21 10 40 10 19 0 37 5 40 10 3 6
21 10 38 10 18 0 55 7 82 15 63 17 321 14 412 -6z m14490 6 c113 -15 189 -29
243 -45 14 -4 54 -16 90 -25 36 -9 74 -21 85 -25 60 -23 113 -40 128 -40 18 0
21 -8 9 -26 -8 -13 -76 -45 -197 -94 -44 -17 -89 -36 -100 -41 -94 -41 -234
-76 -357 -89 -160 -17 -384 16 -533 80 -26 11 -50 20 -55 20 -4 0 -39 14 -78
32 -83 37 -83 49 -3 85 31 13 74 33 96 43 145 65 276 103 425 124 125 18 112
18 247 1z m-12331 -949 c5 -12 -18 -59 -36 -76 -3 -3 -29 -36 -59 -73 -67 -88
-188 -208 -271 -272 -60 -46 -219 -134 -265 -148 -11 -3 -45 -15 -75 -26 -30
-12 -67 -21 -82 -21 -16 0 -36 -4 -46 -9 -9 -5 -53 -15 -97 -23 -105 -17 -816
-19 -822 -2 -4 13 146 167 257 264 41 35 82 71 91 80 9 9 49 38 90 65 41 28
76 52 79 55 3 4 41 23 85 44 44 21 92 44 107 52 14 8 35 14 46 14 12 0 24 5
27 10 3 6 19 10 34 10 15 0 31 4 36 9 13 13 108 30 218 40 48 5 91 11 94 15 4
3 136 6 295 6 240 0 290 -2 294 -14z m10349 4 c159 -11 212 -18 335 -46 94
-22 138 -35 200 -61 94 -40 122 -56 235 -130 153 -100 476 -397 460 -423 -11
-17 -665 -13 -782 6 -116 18 -294 61 -307 75 -6 5 -16 9 -23 9 -25 0 -130 54
-223 115 -63 41 -129 98 -195 166 -117 121 -219 254 -211 274 9 23 265 31 511
15z m-8678 -176 c6 -17 -28 -91 -82 -179 -17 -27 -34 -57 -38 -65 -25 -55
-140 -204 -221 -288 -68 -71 -197 -182 -209 -182 -4 0 -30 -15 -59 -33 -81
-51 -173 -93 -268 -122 -30 -10 -63 -21 -72 -26 -10 -5 -25 -9 -35 -9 -9 0
-30 -4 -47 -9 -93 -28 -167 -42 -321 -61 -44 -5 -100 -14 -125 -19 -25 -6 -72
-10 -106 -11 -33 0 -85 -4 -115 -9 -30 -5 -120 -11 -201 -13 -133 -4 -148 -2
-148 12 0 9 11 30 25 46 14 16 25 32 25 36 0 4 6 13 13 20 6 7 32 40 57 73
143 192 370 432 448 474 11 6 27 17 35 25 41 41 235 144 342 182 28 9 54 21
60 26 5 4 24 8 41 8 18 0 36 5 39 10 3 6 20 10 36 10 17 0 39 5 50 11 11 6 44
15 72 20 50 10 86 15 262 39 44 6 105 15 136 20 30 6 102 11 160 11 57 1 118
5 134 9 55 14 105 11 112 -6z m6778 -13 c44 -6 114 -13 155 -16 41 -3 100 -10
130 -15 30 -5 89 -14 130 -20 172 -27 382 -89 516 -151 272 -128 478 -322 783
-733 57 -78 54 -81 -74 -78 -404 10 -900 90 -1115 179 -188 78 -318 163 -448
291 -109 108 -189 215 -278 372 -81 144 -87 157 -82 172 6 15 151 14 283 -1z
m-2684 -2426 c4 -17 14 -57 24 -90 9 -33 20 -73 25 -90 5 -16 15 -52 23 -80 8
-27 24 -84 36 -125 12 -41 28 -100 37 -130 9 -30 20 -68 24 -85 5 -16 16 -55
25 -85 9 -30 20 -71 25 -90 16 -70 54 -185 63 -191 5 -4 61 -9 125 -13 65 -3
173 -11 242 -16 69 -6 184 -15 255 -20 72 -6 175 -15 230 -21 55 -5 150 -14
210 -20 201 -18 289 -28 405 -44 63 -9 147 -20 185 -25 39 -5 108 -17 155 -26
47 -9 108 -20 135 -24 82 -14 150 -28 191 -38 21 -6 62 -15 89 -21 60 -12 256
-58 305 -71 19 -6 71 -19 115 -31 109 -28 131 -34 200 -54 33 -9 74 -21 90
-25 17 -5 55 -16 85 -25 30 -9 69 -20 85 -25 43 -11 434 -143 535 -180 47 -17
110 -40 140 -50 100 -35 130 -46 136 -53 4 -4 18 -7 30 -7 13 0 26 -4 29 -10
3 -5 13 -10 22 -10 8 0 29 -6 46 -14 18 -8 77 -30 132 -51 89 -32 125 -46 200
-75 11 -4 36 -14 55 -20 31 -12 54 -21 125 -50 11 -5 30 -12 43 -15 12 -4 22
-11 22 -16 0 -12 -55 -12 -94 0 -17 6 -69 17 -116 26 -47 9 -101 20 -120 25
-19 5 -51 12 -70 16 -19 3 -66 13 -105 21 -38 8 -90 18 -115 22 -25 5 -81 16
-125 26 -93 20 -148 31 -226 44 -32 5 -66 12 -78 16 -19 6 -56 13 -176 35 -27
5 -86 16 -130 25 -44 8 -102 19 -130 24 -27 5 -117 21 -200 35 -82 15 -175 31
-205 36 -30 4 -113 18 -185 29 -207 34 -243 39 -375 56 -210 26 -279 34 -455
50 -93 9 -211 20 -262 25 -50 6 -122 10 -160 10 -37 0 -106 4 -153 10 -216 25
-595 40 -1545 64 -363 9 -670 19 -682 22 -13 2 -23 8 -23 13 0 5 60 89 133
187 127 170 307 428 307 440 0 3 15 28 33 57 30 49 117 219 117 231 0 3 11 30
25 60 14 30 25 57 25 60 0 3 13 34 28 68 16 35 50 121 77 191 36 95 52 127 64
125 8 -2 18 -17 22 -33z m805 -1516 c206 -37 355 -192 421 -436 24 -89 27
-115 27 -283 0 -155 -4 -202 -23 -289 -53 -248 -245 -639 -523 -1071 l-100
-155 6 -130 c4 -71 13 -281 21 -465 26 -588 52 -976 66 -1000 4 -8 9 -12 9 -9
2 53 61 352 95 483 140 545 377 1038 622 1296 247 260 471 330 741 231 196
-71 301 -203 362 -451 47 -191 49 -335 9 -700 -42 -390 -61 -473 -266 -1155
-143 -478 -218 -814 -242 -1090 -5 -60 -8 -111 -7 -113 2 -1 26 28 54 65 150
203 343 588 541 1080 213 531 523 1444 556 1639 68 403 221 783 424 1054 135
180 306 329 466 406 130 63 197 78 340 78 178 0 280 -32 371 -116 117 -107
131 -261 45 -483 -87 -227 -254 -453 -586 -794 -100 -102 -190 -202 -200 -221
-15 -29 -19 -82 -27 -389 -14 -535 -2 -739 53 -905 57 -172 117 -256 183 -256
178 0 542 432 811 965 86 168 218 466 230 517 4 19 -3 28 -46 53 -111 65 -198
192 -240 352 -33 121 -38 389 -11 548 50 289 162 515 287 575 139 67 334 67
466 -1 50 -25 126 -93 145 -131 60 -117 60 -422 -1 -622 -22 -72 -19 -74 28
-29 70 68 204 171 255 197 66 34 156 49 292 50 109 1 118 -1 175 -29 96 -48
125 -108 125 -255 0 -110 -20 -198 -129 -563 -203 -683 -276 -1021 -301 -1385
-11 -169 -1 -377 25 -497 8 -38 15 -72 15 -75 0 -2 25 20 56 50 280 274 547
790 880 1700 69 189 100 261 119 277 75 65 206 39 249 -51 24 -51 20 -96 -20
-187 -19 -46 -82 -214 -140 -373 -289 -795 -467 -1179 -692 -1495 -80 -113
-218 -253 -294 -299 -104 -62 -159 -76 -298 -74 -434 4 -666 254 -711 766 -40
447 114 1100 378 1606 l65 125 -48 -54 c-53 -59 -168 -139 -239 -166 -36 -14
-46 -24 -56 -54 -23 -72 -161 -386 -252 -575 -195 -401 -391 -692 -609 -902
-281 -270 -483 -320 -828 -205 -330 111 -573 374 -694 751 -15 47 -30 92 -33
100 -6 16 -5 17 -106 -270 -314 -893 -494 -1293 -717 -1586 -80 -105 -207
-229 -284 -279 -242 -154 -539 -87 -705 160 -92 138 -142 308 -162 550 -10
120 -10 158 5 270 32 253 133 694 255 1120 78 273 93 320 186 570 136 371 185
580 185 788 0 62 -3 122 -6 134 l-6 23 -62 -33 c-90 -48 -235 -196 -329 -337
-216 -326 -348 -703 -426 -1220 -11 -74 -36 -286 -56 -470 -60 -569 -104 -874
-132 -920 -40 -64 -59 -76 -121 -75 -33 1 -64 5 -70 9 -6 4 -16 -3 -22 -14
-15 -28 -50 -25 -122 11 -163 82 -345 347 -487 709 -94 236 -212 631 -271 905
-18 83 -34 151 -35 153 -1 1 -21 -73 -44 -165 -155 -608 -317 -1027 -509
-1314 -218 -324 -434 -401 -727 -259 -143 69 -264 170 -376 313 -247 318 -424
860 -496 1521 l-18 165 -90 -89 c-49 -50 -117 -110 -150 -135 -69 -52 -238
-138 -305 -155 -130 -33 -118 -25 -136 -88 -63 -216 -260 -491 -435 -607 -122
-82 -223 -114 -354 -114 -104 -1 -189 20 -300 73 -151 72 -288 193 -364 320
-47 79 -97 215 -118 324 l-18 92 -55 -72 c-76 -100 -229 -253 -323 -322 -111
-82 -265 -153 -385 -178 -134 -28 -284 -22 -397 16 -253 85 -475 277 -601 518
-26 51 -45 77 -48 68 -3 -8 -30 -96 -61 -195 -203 -645 -430 -993 -699 -1070
-119 -35 -288 -2 -404 77 -153 105 -248 240 -311 443 -87 285 -128 625 -152
1285 -6 173 -15 319 -19 324 -11 12 -258 -19 -357 -45 -105 -26 -161 -61 -183
-113 -12 -28 -29 -147 -55 -391 -63 -594 -81 -682 -151 -711 -43 -18 -64 -18
-64 1 0 8 -4 15 -10 15 -5 0 -10 -9 -10 -20 0 -16 -7 -20 -30 -20 -17 0 -33 6
-36 14 -3 8 -15 11 -30 8 -13 -2 -24 0 -24 6 0 5 -9 12 -19 15 -29 7 -41 66
-41 200 0 412 152 1765 256 2277 69 337 153 605 260 819 113 228 179 304 329
376 93 45 181 65 290 65 153 0 263 -42 366 -138 151 -142 226 -359 251 -730
10 -154 9 -239 -5 -555 -21 -446 -22 -630 -4 -645 6 -5 54 -25 106 -43 98 -34
142 -63 166 -110 24 -45 19 -84 -16 -124 -30 -33 -33 -35 -50 -20 -16 16 -18
15 -21 -7 -4 -28 -39 -36 -57 -14 -11 14 -16 14 -37 -1 -18 -11 -38 -14 -74
-10 l-49 6 -7 -46 c-9 -61 2 -775 16 -1063 6 -124 18 -274 26 -334 15 -105 66
-390 82 -451 l8 -30 50 50 c139 140 300 484 419 895 228 787 235 813 256 965
82 613 325 1080 671 1286 380 227 725 148 846 -195 22 -61 25 -89 26 -201 1
-179 -32 -290 -114 -379 -58 -63 -89 -62 -56 2 19 37 32 107 19 99 -6 -4 -21
-33 -33 -64 -33 -84 -41 -90 -76 -60 -23 20 -31 22 -39 12 -16 -21 -54 0 -71
40 -11 28 -14 76 -12 228 2 160 -1 198 -14 230 -10 20 -20 37 -23 37 -15 0
-89 -71 -126 -121 -124 -164 -246 -513 -283 -809 -24 -191 -39 -454 -32 -568
18 -283 102 -551 207 -661 59 -61 111 -84 189 -84 268 2 592 355 794 865 59
150 128 394 123 433 -2 17 -17 75 -32 130 -24 83 -29 120 -29 220 -1 105 3
135 31 237 38 140 63 191 138 281 96 115 218 192 380 239 117 33 281 31 382
-4 248 -88 485 -303 610 -553 157 -312 193 -630 137 -1207 -8 -82 -5 -83 86
-30 135 78 304 279 403 482 l42 85 6 315 c4 173 12 365 18 425 56 542 164 947
357 1334 80 162 181 329 220 363 74 65 279 103 394 74 140 -36 263 -118 349
-234 122 -162 190 -368 210 -635 25 -327 -61 -673 -271 -1091 -97 -194 -350
-629 -451 -775 l-30 -44 6 -366 c9 -522 23 -688 84 -996 54 -278 189 -621 265
-678 23 -17 31 -18 56 -8 77 32 184 175 281 375 190 391 360 971 537 1831 l35
170 -17 200 c-15 172 -16 223 -5 371 41 593 190 1114 419 1464 74 112 225 263
325 325 159 98 352 142 503 114z m-8110 -5119 c73 -25 125 -66 162 -128 24
-41 27 -57 27 -129 0 -110 -3 -112 -113 -90 -48 10 -90 22 -94 25 -4 4 -3 24
2 44 18 63 -16 117 -73 118 -39 0 -62 -14 -76 -47 -6 -15 -40 -142 -75 -281
-54 -212 -63 -258 -54 -283 12 -34 35 -49 75 -49 41 0 68 23 81 69 7 22 16 43
21 45 10 7 171 -40 184 -53 11 -11 -25 -104 -58 -146 -14 -19 -47 -47 -73 -62
-42 -25 -57 -28 -137 -28 -78 0 -97 4 -147 28 -94 46 -158 143 -158 239 0 53
140 581 166 625 64 110 199 150 340 103z m13124 -1 c54 -24 105 -71 130 -119
10 -20 48 -151 84 -291 88 -342 88 -393 -3 -492 -24 -25 -64 -55 -94 -67 -62
-27 -178 -38 -230 -21 -55 19 -113 66 -143 117 -32 54 -164 554 -164 620 0
113 79 217 191 253 84 26 171 26 229 0z m-12516 -144 c148 -31 236 -129 236
-262 0 -67 -112 -557 -139 -611 -42 -81 -121 -132 -216 -140 -149 -11 -283 70
-321 194 -21 71 -18 96 41 357 70 306 79 331 128 384 47 51 81 71 140 83 59
11 55 11 131 -5z m11871 -16 c61 -29 121 -99 142 -165 9 -30 14 -56 11 -59
-10 -10 -179 -56 -188 -50 -4 3 -11 18 -15 35 -3 16 -15 41 -26 55 -42 52
-139 19 -139 -47 0 -33 105 -499 122 -541 6 -15 19 -32 29 -37 30 -16 78 -11
99 10 22 22 23 25 24 95 l1 50 90 17 c61 13 92 15 99 8 6 -6 11 -48 11 -93 0
-65 -5 -90 -22 -122 -48 -89 -140 -145 -254 -153 -134 -9 -236 56 -277 177
-31 90 -124 521 -124 576 0 158 120 263 305 264 49 1 80 -5 112 -20z m-1685
-35 c0 -13 -96 -184 -106 -188 -6 -2 -36 -7 -67 -11 -45 -6 -57 -4 -57 6 0 20
51 152 64 167 18 19 166 43 166 26z m-9672 -73 c45 -10 84 -20 86 -22 3 -3 20
-136 38 -296 18 -161 36 -289 39 -285 3 4 30 127 59 275 47 238 55 267 72 267
28 0 162 -31 171 -40 9 -8 -180 -959 -193 -974 -10 -10 -186 24 -205 39 -8 6
-24 119 -45 300 -17 160 -33 291 -34 293 -2 1 -27 -119 -57 -269 -30 -149 -57
-275 -60 -281 -7 -11 -180 20 -190 35 -5 7 154 822 186 955 7 27 23 28 133 3z
m10888 -466 c74 -351 98 -483 90 -491 -15 -15 -176 -48 -185 -38 -9 11 -201
929 -201 960 0 19 10 24 73 37 133 28 107 83 223 -468z m-485 358 c29 -16 65
-47 80 -69 33 -46 69 -168 53 -184 -12 -12 -171 -43 -184 -35 -6 3 -13 24 -16
47 -9 52 -47 98 -83 98 -33 0 -69 -25 -81 -55 -11 -28 80 -528 105 -574 24
-48 81 -56 120 -16 28 27 31 60 14 147 l-11 55 -43 -5 -43 -4 -12 58 c-6 33
-13 64 -15 70 -7 24 15 33 140 57 104 19 132 22 140 12 6 -7 24 -84 39 -170
25 -139 27 -163 17 -210 -14 -63 -56 -125 -108 -159 -44 -29 -139 -56 -198
-56 -98 0 -196 62 -233 148 -23 53 -122 555 -122 617 0 21 5 55 12 77 14 46
77 122 122 145 96 50 224 53 307 6z m-9503 -57 c65 -23 118 -70 148 -131 23
-48 26 -64 22 -130 -2 -41 -8 -79 -14 -85 -7 -7 -38 -4 -99 8 l-90 17 3 57 c3
50 1 60 -22 83 -46 46 -107 24 -126 -45 -15 -57 2 -89 120 -221 123 -137 153
-190 154 -274 1 -168 -109 -285 -269 -285 -112 0 -212 52 -262 137 -25 42 -28
58 -28 130 0 47 5 87 11 93 9 9 36 7 104 -6 l92 -17 -5 -39 c-3 -22 -1 -53 5
-69 29 -84 148 -53 148 38 0 50 -19 78 -129 198 -118 128 -146 183 -146 285 1
131 66 230 175 265 53 17 145 13 208 -9z m8845 -59 c60 -36 104 -90 122 -152
27 -95 97 -558 91 -604 -8 -56 -52 -137 -91 -167 -83 -63 -204 -87 -297 -60
-70 20 -138 79 -166 143 -24 59 -102 517 -102 606 0 116 68 208 182 249 79 28
199 21 261 -15z m-6159 -8 c5 -5 -20 -40 -58 -84 l-68 -75 -63 0 c-35 0 -67 4
-70 10 -3 5 13 38 36 72 69 103 62 99 143 92 39 -4 75 -10 80 -15z m-2265 -9
c36 -5 68 -13 72 -17 5 -5 -17 -176 -47 -382 -31 -205 -53 -384 -50 -397 20
-80 107 -84 149 -8 4 7 32 180 63 385 30 206 57 376 60 378 7 7 178 -20 188
-30 11 -10 -87 -693 -110 -767 -50 -169 -225 -245 -394 -171 -95 42 -159 138
-160 239 -1 68 100 760 113 777 5 7 19 11 31 8 11 -3 50 -9 85 -15z m7556 -82
c3 -7 30 -190 60 -407 30 -217 56 -396 59 -398 2 -2 72 5 156 17 84 12 156 17
160 13 14 -15 27 -153 16 -162 -14 -10 -504 -77 -511 -70 -6 7 -135 928 -135
965 0 29 5 31 85 43 88 13 105 12 110 -1z m-6845 -17 c54 -8 55 47 -5 -444
-26 -208 -44 -381 -42 -384 3 -3 71 -13 152 -24 80 -10 151 -21 156 -25 6 -3
8 -23 5 -45 -19 -131 -14 -119 -54 -119 -67 1 -472 56 -481 66 -6 6 108 967
118 992 1 3 57 -4 151 -17z m6428 -57 c58 -29 96 -69 124 -130 23 -53 82 -543
75 -627 -12 -144 -133 -240 -302 -241 -124 -1 -225 67 -260 174 -21 64 -77
564 -70 621 9 62 57 143 105 175 60 40 108 53 196 54 67 0 89 -4 132 -26z
m-5712 -23 c155 -16 287 -31 293 -35 10 -6 8 -45 -5 -135 l-5 -33 -99 7 -99 7
-5 -33 c-3 -19 -22 -198 -41 -399 -20 -201 -38 -371 -41 -379 -3 -11 -22 -12
-92 -6 -48 4 -92 12 -98 18 -8 9 -1 112 27 387 21 206 38 389 38 406 l1 31
-92 9 -93 9 3 75 c3 80 7 100 19 100 4 -1 135 -13 289 -29z m5031 -36 c82 -34
144 -119 158 -217 8 -54 16 -49 -114 -68 -81 -12 -91 -7 -91 38 0 31 -25 78
-45 86 -30 11 -62 6 -89 -15 -22 -17 -26 -28 -26 -74 0 -86 39 -508 50 -532
14 -34 54 -56 89 -48 45 10 63 37 65 97 l1 53 90 7 c50 4 96 5 103 3 17 -6 15
-90 -4 -154 -11 -38 -29 -67 -63 -101 -58 -58 -118 -80 -220 -80 -124 0 -206
50 -251 153 -17 39 -26 103 -47 336 -24 275 -25 290 -9 345 28 94 106 164 209
186 55 12 147 4 194 -15z m-4276 -31 c58 -18 123 -74 150 -127 31 -60 33 -125
10 -415 -16 -202 -25 -272 -39 -305 -46 -104 -136 -160 -255 -161 -148 0 -258
71 -293 189 -15 55 -15 73 5 341 13 165 27 299 36 323 52 148 209 211 386 155z
m3734 -6 c3 -7 20 -229 38 -493 25 -348 31 -483 23 -491 -13 -14 -183 -28
-190 -16 -4 7 -61 787 -69 947 l-2 50 50 6 c92 11 145 10 150 -3z m-427 -42
c62 -31 108 -86 127 -150 16 -53 20 -122 8 -129 -5 -3 -48 -6 -98 -8 l-90 -4
-7 49 c-12 82 -70 120 -125 81 -24 -17 -39 -71 -28 -104 12 -39 57 -81 161
-152 118 -81 195 -158 212 -216 17 -56 15 -141 -4 -196 -18 -54 -74 -115 -129
-142 -57 -28 -191 -33 -252 -10 -100 38 -156 118 -157 225 l-1 65 89 5 c48 3
91 3 96 0 4 -3 10 -25 13 -50 6 -49 42 -90 78 -90 34 0 79 53 79 93 0 49 -32
84 -156 168 -184 126 -243 215 -232 354 13 154 133 251 300 240 44 -2 82 -12
116 -29z m-2738 15 c117 -9 163 -27 217 -83 51 -53 75 -120 76 -207 1 -106
-23 -172 -85 -234 l-50 -50 56 -217 c31 -119 56 -220 56 -225 0 -8 -196 -2
-205 6 -2 3 -25 98 -51 212 l-47 207 -28 0 c-33 0 -34 -5 -46 -245 l-8 -160
-91 -3 c-65 -2 -94 1 -101 10 -7 9 -3 159 13 488 13 261 23 483 24 493 0 15
11 17 83 16 45 0 129 -4 187 -8z m599 -27 c6 -5 -19 -952 -25 -983 -5 -24 -6
-24 -100 -18 -53 3 -98 8 -100 10 -7 7 24 986 31 997 5 8 184 2 194 -6z m516
-11 c31 -10 67 -34 97 -64 76 -76 81 -104 76 -447 -3 -274 -4 -289 -26 -337
-51 -110 -135 -160 -272 -159 -65 0 -96 5 -130 21 -58 26 -107 76 -134 133
-20 42 -21 62 -21 330 0 157 4 306 8 331 15 85 81 161 172 196 46 18 174 16
230 -4z m994 -9 c156 -78 203 -344 85 -482 -55 -65 -103 -85 -210 -90 l-91 -4
5 -204 5 -204 -102 0 c-55 0 -101 1 -101 3 -5 25 -27 993 -24 999 3 4 90 8
193 8 182 0 188 -1 240 -26z"/>
<path d="M10960 12498 c14 -5 33 -14 42 -19 10 -5 27 -9 38 -9 11 0 20 -3 20
-8 0 -4 24 -15 53 -25 99 -34 149 -58 154 -73 2 -6 -34 -57 -80 -114 -116
-146 -462 -581 -576 -725 -52 -66 -98 -122 -101 -125 -16 -13 -80 -104 -76
-108 5 -4 24 0 211 44 55 12 141 32 190 44 50 11 115 27 145 36 70 19 110 29
190 49 36 9 76 20 90 24 14 5 45 14 70 21 82 22 145 42 162 51 10 5 24 9 33 9
8 0 31 7 52 16 21 9 48 21 61 25 36 14 136 57 212 91 25 11 54 24 65 28 11 5
137 66 280 135 l260 127 55 -12 c30 -6 69 -13 85 -17 17 -3 35 -9 40 -13 19
-14 73 -21 80 -11 3 6 -10 13 -35 17 -22 4 -43 11 -46 15 -3 5 -23 9 -45 9
-21 0 -39 3 -39 8 0 4 -28 15 -63 26 -34 10 -96 29 -137 42 -41 13 -80 24 -87
24 -7 0 -21 4 -31 9 -9 5 -53 20 -97 34 -307 95 -913 294 -937 307 -10 6 -29
10 -43 10 -14 0 -25 5 -25 10 0 6 -8 10 -17 10 -10 0 -31 7 -47 15 -15 8 -37
15 -47 15 -11 0 -19 5 -19 10 0 6 -15 10 -32 9 -32 0 -33 -1 -8 -11z"/>
<path d="M4288 11943 c7 -3 16 -2 19 1 4 3 -2 6 -13 5 -11 0 -14 -3 -6 -6z"/>
<path d="M10080 6793 c-81 -103 -107 -310 -120 -953 -5 -250 -8 -456 -6 -458
3 -2 47 81 99 185 177 351 254 644 227 862 -10 79 -72 277 -111 352 -24 48
-57 52 -89 12z"/>
<path d="M7896 6764 c-54 -54 -131 -264 -175 -476 -66 -321 -91 -618 -98
-1153 l-5 -410 67 115 c213 367 375 772 431 1082 23 127 23 365 0 473 -24 110
-68 219 -119 294 -53 80 -78 99 -101 75z"/>
<path d="M9546 6622 c-54 -74 -112 -196 -141 -297 -29 -101 -81 -391 -89 -505
l-6 -75 24 102 c67 280 129 484 208 686 28 71 48 130 45 133 -2 3 -21 -17 -41
-44z"/>
<path d="M1012 6568 c-54 -69 -129 -326 -206 -710 -75 -374 -160 -944 -154
-1031 3 -42 3 -42 46 -45 40 -3 451 55 462 65 9 9 3 618 -9 833 -23 416 -56
741 -87 848 -14 51 -31 65 -52 40z"/>
<path d="M716 6394 c-111 -244 -169 -455 -235 -859 -20 -121 -101 -718 -101
-744 0 -46 12 19 39 217 82 580 180 1016 306 1348 31 81 54 151 52 157 -1 5
-29 -48 -61 -119z"/>
<path d="M845 6378 c-85 -181 -149 -411 -209 -748 -45 -253 -98 -617 -94 -644
2 -11 12 38 22 109 30 213 94 568 137 755 37 160 124 439 177 568 35 85 14 59
-33 -40z"/>
<path d="M13718 5740 c-141 -149 -303 -464 -388 -753 -17 -60 -30 -112 -28
-116 4 -11 179 181 269 294 188 237 295 450 273 548 -10 49 -33 87 -51 87 -10
0 -43 -27 -75 -60z"/>
<path d="M14815 5698 c-94 -235 -110 -312 -110 -543 0 -159 3 -199 19 -247 16
-50 50 -99 59 -87 5 5 74 395 87 484 20 146 4 395 -29 428 -5 5 -16 -10 -26
-35z"/>
<path d="M8096 5503 c-13 -27 -44 -98 -69 -159 -60 -146 -125 -275 -242 -480
-117 -204 -137 -242 -133 -256 12 -34 326 558 408 767 21 55 46 117 55 138 22
53 10 46 -19 -10z"/>
<path d="M5243 5530 c-46 -11 -117 -55 -149 -92 -45 -54 -83 -147 -96 -236 -6
-45 -9 -85 -6 -87 3 -3 40 10 83 30 l78 35 -6 -37 c-4 -21 -3 -33 1 -28 4 6
27 28 50 50 41 38 44 39 57 22 13 -18 14 -18 41 -1 l27 18 -7 -48 c-7 -45 -7
-47 13 -37 11 6 23 16 26 21 3 5 15 15 26 20 17 10 21 7 31 -21 9 -26 12 -29
20 -15 5 9 12 16 17 16 12 0 51 -75 51 -99 0 -23 -84 -459 -124 -644 -14 -65
-26 -124 -26 -131 0 -7 26 -44 59 -82 108 -128 275 -235 429 -275 41 -10 76
-18 77 -17 13 16 57 252 66 353 20 232 -9 542 -68 730 -55 176 -175 361 -285
443 -128 95 -275 139 -385 112z"/>
<path d="M3182 5403 c-30 -43 -56 -99 -96 -206 -38 -102 -120 -406 -132 -491
-10 -72 11 -50 25 26 28 146 125 453 195 616 19 45 33 82 31 82 -2 0 -12 -12
-23 -27z"/>
<path d="M3385 5370 c-67 -105 -175 -450 -196 -622 -6 -50 -9 -92 -6 -94 3 -3
22 66 42 153 44 185 112 403 162 515 39 89 38 111 -2 48z"/>
<path d="M8116 5307 c-41 -97 -205 -400 -343 -635 -69 -117 -123 -215 -120
-218 9 -10 110 149 240 378 62 109 238 470 252 516 12 42 -2 22 -29 -41z"/>
<path d="M13161 5221 c-117 -207 -168 -350 -209 -584 -11 -59 -16 -110 -11
-113 15 -9 55 87 107 256 28 91 80 252 114 358 35 105 63 192 62 192 -1 0 -30
-49 -63 -109z"/>
<path d="M12932 5223 c-92 -157 -178 -346 -220 -485 l-20 -66 25 -7 c14 -3 27
-5 28 -3 2 2 30 84 63 183 34 99 85 240 115 313 31 72 54 132 52 132 -1 0 -21
-30 -43 -67z"/>
<path d="M532 4935 c0 -16 2 -22 5 -12 2 9 2 23 0 30 -3 6 -5 -1 -5 -18z"/>
<path d="M15807 4858 c-39 -65 -111 -250 -189 -483 -38 -115 -98 -275 -133
-355 -172 -398 -236 -626 -234 -825 1 -77 2 -78 11 -35 105 494 232 874 491
1470 72 165 101 250 89 262 -6 6 -19 -6 -35 -34z"/>
<path d="M15596 4775 c-9 -26 -7 -32 5 -12 6 10 9 21 6 23 -2 3 -7 -2 -11 -11z"/>
<path d="M10566 4597 c-68 -116 -204 -417 -248 -550 -47 -144 -139 -494 -137
-526 0 -9 18 52 40 134 80 301 187 592 305 828 58 114 77 157 69 157 -2 0 -15
-19 -29 -43z"/>
<path d="M15526 4615 c-9 -26 -7 -32 5 -12 6 10 9 21 6 23 -2 3 -7 -2 -11 -11z"/>
<path d="M15496 4545 c-9 -26 -7 -32 5 -12 6 10 9 21 6 23 -2 3 -7 -2 -11 -11z"/>
<path d="M11380 4487 c0 -31 -56 -235 -129 -472 -96 -308 -247 -829 -285 -980
-36 -141 -69 -319 -81 -430 -5 -53 -2 -47 24 50 16 61 110 394 210 740 99 347
198 702 220 790 35 143 62 325 47 325 -3 0 -6 -10 -6 -23z"/>
<path d="M11255 4489 c-3 -8 -14 -50 -25 -94 -26 -104 -114 -380 -251 -786
-82 -244 -120 -374 -149 -513 -22 -103 -40 -192 -39 -199 0 -7 16 40 35 103
19 63 86 270 148 460 111 335 191 591 236 755 36 128 71 343 45 274z"/>
<path d="M15386 4285 c-9 -26 -7 -32 5 -12 6 10 9 21 6 23 -2 3 -7 -2 -11 -11z"/>
<path d="M15282 4022 c-155 -386 -190 -501 -217 -722 -17 -138 -20 -290 -6
-290 10 0 15 28 31 165 27 225 133 638 240 931 27 76 48 139 47 141 -2 2 -45
-99 -95 -225z"/>
<path d="M11607 4193 c-2 -10 -34 -128 -70 -263 -36 -135 -84 -299 -107 -365
-123 -358 -195 -640 -240 -932 -17 -114 -26 -236 -13 -178 78 342 188 751 317
1183 63 208 104 381 116 491 8 75 7 99 -3 64z"/>
<path d="M11622 3637 c-90 -278 -217 -737 -209 -760 2 -6 27 70 56 169 30 98
86 282 127 407 40 125 78 254 85 286 23 121 2 83 -59 -102z"/>
<path d="M5320 3761 c0 -73 127 -397 200 -511 20 -32 39 -50 48 -48 21 4 114
141 180 266 28 55 52 102 52 106 0 3 -18 6 -41 6 -86 0 -291 91 -396 177 l-43
34 0 -30z"/>
<path d="M10172 3480 c0 -14 2 -19 5 -12 2 6 2 18 0 25 -3 6 -5 1 -5 -13z"/>
<path d="M11401 2844 c0 -11 3 -14 6 -6 3 7 2 16 -1 19 -3 4 -6 -2 -5 -13z"/>
<path d="M14964 1786 c-21 -17 -28 -32 -28 -57 1 -19 29 -146 64 -282 71 -275
81 -297 145 -297 44 0 85 37 85 76 0 35 -118 501 -136 536 -27 53 -85 63 -130
24z"/>
<path d="M2553 1650 c-12 -5 -29 -20 -38 -33 -18 -29 -126 -485 -127 -541 -1
-74 81 -112 137 -63 22 19 33 55 85 282 40 172 59 271 55 293 -9 47 -67 80
-112 62z"/>
<path d="M12681 1313 c-12 -10 -24 -34 -27 -53 -3 -20 15 -150 40 -295 41
-242 46 -261 71 -282 57 -50 135 -12 135 66 0 55 -77 517 -90 541 -22 42 -91
54 -129 23z"/>
<path d="M11425 1149 c-54 -31 -55 -50 -17 -375 29 -247 39 -278 89 -290 40
-10 76 7 95 46 16 33 15 46 -12 285 -34 291 -36 298 -59 319 -23 21 -71 29
-96 15z"/>
<path d="M6485 1036 c-31 -31 -31 -33 -50 -283 -21 -296 -21 -318 10 -348 44
-45 126 -20 139 43 4 15 15 140 25 277 16 213 17 255 5 283 -22 54 -89 68
-129 28z"/>
<path d="M7146 980 c-3 -18 -6 -77 -6 -131 l0 -99 53 0 c58 0 90 20 108 67 21
55 5 139 -33 171 -7 6 -36 14 -64 17 l-51 7 -7 -32z"/>
<path d="M8180 977 c-47 -24 -50 -43 -50 -340 l0 -278 25 -24 c27 -27 79 -33
106 -12 36 28 39 51 39 334 -1 292 -1 297 -47 321 -27 15 -42 15 -73 -1z"/>
<path d="M9121 983 c-24 -5 -24 -5 -18 -101 4 -54 7 -112 7 -129 0 -32 2 -33
39 -33 95 0 126 42 122 167 -2 65 -75 111 -150 96z"/>
</g>
</svg>
